<?xml version="1.0" encoding="UTF-8" standalone="no"?>
<svg
   width="1600"
   height="900"
   version="1.1"
   id="svg87"
   sodipodi:docname="1.svg"
   inkscape:version="1.4 (86a8ad7, 2024-10-11)"
   xmlns:inkscape="http://www.inkscape.org/namespaces/inkscape"
   xmlns:sodipodi="http://sodipodi.sourceforge.net/DTD/sodipodi-0.dtd"
   xmlns="http://www.w3.org/2000/svg"
   xmlns:svg="http://www.w3.org/2000/svg">
  <sodipodi:namedview
     id="namedview87"
     pagecolor="#ffffff"
     bordercolor="#000000"
     borderopacity="0.25"
     inkscape:showpageshadow="2"
     inkscape:pageopacity="0.0"
     inkscape:pagecheckerboard="0"
     inkscape:deskcolor="#d1d1d1"
     inkscape:zoom="1.5097656"
     inkscape:cx="804.76069"
     inkscape:cy="297.06598"
     inkscape:window-width="1920"
     inkscape:window-height="991"
     inkscape:window-x="-9"
     inkscape:window-y="-9"
     inkscape:window-maximized="1"
     inkscape:current-layer="svg87" />
  <defs
     id="defs37">
    <linearGradient
       id="gradient_0"
       gradientUnits="userSpaceOnUse"
       x1="739.12897"
       y1="136.68178"
       x2="743.89288"
       y2="118.3054"
       gradientTransform="matrix(0.69865891,0,0,0.69865891,452.28286,102.75173)">
      <stop
         offset="0"
         stop-color="#110B0A"
         id="stop36" />
      <stop
         offset="1"
         stop-color="#2C1A17"
         id="stop37" />
    </linearGradient>
  </defs>
  <defs
     id="defs67">
    <linearGradient
       id="gradient_1"
       gradientUnits="userSpaceOnUse"
       x1="726.9071"
       y1="328.62439"
       x2="722.15552"
       y2="326.51587"
       gradientTransform="matrix(0.69865891,0,0,0.69865891,452.28286,102.75173)">
      <stop
         offset="0"
         stop-color="#090504"
         id="stop66" />
      <stop
         offset="1"
         stop-color="#21110F"
         id="stop67" />
    </linearGradient>
  </defs>
  <defs
     id="defs70">
    <linearGradient
       id="gradient_2"
       gradientUnits="userSpaceOnUse"
       x1="791.77368"
       y1="158.23056"
       x2="799.45844"
       y2="187.01111"
       gradientTransform="matrix(0.69865891,0,0,0.69865891,452.28286,102.75173)">
      <stop
         offset="0"
         stop-color="#040000"
         id="stop69" />
      <stop
         offset="1"
         stop-color="#221313"
         id="stop70" />
    </linearGradient>
  </defs>
  <defs
     id="defs72">
    <linearGradient
       id="gradient_3"
       gradientUnits="userSpaceOnUse"
       x1="687.62524"
       y1="310.17313"
       x2="680.60168"
       y2="304.02301"
       gradientTransform="matrix(0.69865891,0,0,0.69865891,452.28286,102.75173)">
      <stop
         offset="0"
         stop-color="black"
         id="stop71" />
      <stop
         offset="1"
         stop-color="#271614"
         id="stop72" />
    </linearGradient>
  </defs>
  <path
     style="fill:#000000;fill-opacity:0.638923;stroke:#000000;stroke-width:2.875;stroke-linecap:round;stroke-miterlimit:23.6;stroke-dasharray:none;stroke-opacity:1"
     d="m 950.80983,206.32342 -65.57309,45.70245 c 0,0 29.54789,40.42569 65.24192,10.2665 19.28336,-16.29323 0.33117,-55.96895 0.33117,-55.96895 z"
     id="path101"
     sodipodi:nodetypes="ccsc" />
  <path
     style="fill:#000000;fill-opacity:0.638923;stroke:#000000;stroke-width:2.875;stroke-linecap:round;stroke-miterlimit:23.6;stroke-dasharray:none;stroke-opacity:1"
     d="m 1024.0701,151.25472 -48.68305,36.09831 c 0,0 31.83995,26.87502 53.31955,10.76326 13.5282,-10.14748 -4.6365,-46.86157 -4.6365,-46.86157 z"
     id="path101-0"
     sodipodi:nodetypes="ccsc" />
  <path
     style="fill:#000000;fill-opacity:0.638923;stroke:#000000;stroke-width:2.875;stroke-linecap:round;stroke-miterlimit:23.6;stroke-dasharray:none;stroke-opacity:1"
     d="m 951.62945,205.69078 22.54721,-17.4095"
     id="path102"
     sodipodi:nodetypes="cc" />
  <path
     style="fill:none;fill-opacity:0.638923;stroke:#000000;stroke-width:3;stroke-linecap:round;stroke-miterlimit:23.6;stroke-dasharray:none;stroke-opacity:1"
     d="m 956.14741,219.30739 c 0,0 3.40828,-15.96858 8.9296,-20.44793 6.17302,-5.00807 21.74768,-3.78946 21.74768,-3.78946"
     id="path103"
     sodipodi:nodetypes="csc" />
  <path
     style="fill:#000000;fill-opacity:1;stroke:#000000;stroke-width:0.702533;stroke-linecap:round;stroke-miterlimit:23.6;stroke-dasharray:none;stroke-opacity:1"
     d="m 954.0601,209.98807 c -0.62318,-1.57186 -1.93854,-3.4416 -1.99281,-3.58255 -0.0845,-0.21945 10.57832,-7.83003 10.73719,-7.67117 0.0315,0.0315 -2.62295,5.49116 -3.11596,6.97174 -0.49301,1.48057 -1.78472,3.90792 -2.06092,5.19172 -0.27621,1.28381 -1.93461,5.04992 -2.37905,3.09333 -0.01,-0.0421 -0.56526,-2.4312 -1.18845,-4.00307 z"
     id="path104"
     sodipodi:nodetypes="sssssss" />
  <path
     style="fill:#000000;fill-opacity:1;stroke:#000000;stroke-width:0.124191;stroke-linecap:round;stroke-miterlimit:23.6;stroke-dasharray:none;stroke-opacity:1"
     d="m 968.67271,193.4386 c 0.10262,-0.10843 6.7474,-5.291 6.80328,-5.31244 0.0884,-0.0339 7.0848,5.38275 6.1209,5.36413 l -7.50273,-0.14488 7.04865,-0.38507 c 0.13125,-0.007 -6.6921,1.83888 -7.06778,1.87538 -1.25133,0.12148 -4.90728,1.70511 -5.46442,1.86821 -0.0733,0.0214 -3.41067,0.40387 -2.67332,-0.37518 z"
     id="path105"
     sodipodi:nodetypes="ssscsssss" />
</svg>
