<?xml version="1.0" encoding="UTF-8" standalone="no"?>
<svg
   width="1600"
   height="900"
   version="1.1"
   id="svg87"
   sodipodi:docname="seal1m.svg"
   inkscape:version="1.4 (86a8ad7, 2024-10-11)"
   xml:space="preserve"
   xmlns:inkscape="http://www.inkscape.org/namespaces/inkscape"
   xmlns:sodipodi="http://sodipodi.sourceforge.net/DTD/sodipodi-0.dtd"
   xmlns="http://www.w3.org/2000/svg"
   xmlns:svg="http://www.w3.org/2000/svg"><sodipodi:namedview
     id="namedview87"
     pagecolor="#ffffff"
     bordercolor="#000000"
     borderopacity="0.25"
     inkscape:showpageshadow="2"
     inkscape:pageopacity="0.0"
     inkscape:pagecheckerboard="0"
     inkscape:deskcolor="#d1d1d1"
     inkscape:zoom="1.0675655"
     inkscape:cx="817.74841"
     inkscape:cy="451.9629"
     inkscape:window-width="1920"
     inkscape:window-height="991"
     inkscape:window-x="-9"
     inkscape:window-y="-9"
     inkscape:window-maximized="1"
     inkscape:current-layer="svg87" /><defs
     id="defs37"><linearGradient
       id="gradient_0"
       gradientUnits="userSpaceOnUse"
       x1="739.12897"
       y1="136.68178"
       x2="743.89288"
       y2="118.3054"
       gradientTransform="matrix(0.69865891,0,0,0.69865891,452.28286,102.75173)"><stop
         offset="0"
         stop-color="#110B0A"
         id="stop36" /><stop
         offset="1"
         stop-color="#2C1A17"
         id="stop37" /></linearGradient></defs><defs
     id="defs67"><linearGradient
       id="gradient_1"
       gradientUnits="userSpaceOnUse"
       x1="726.9071"
       y1="328.62439"
       x2="722.15552"
       y2="326.51587"
       gradientTransform="matrix(0.69865891,0,0,0.69865891,452.28286,102.75173)"><stop
         offset="0"
         stop-color="#090504"
         id="stop66" /><stop
         offset="1"
         stop-color="#21110F"
         id="stop67" /></linearGradient></defs><defs
     id="defs70"><linearGradient
       id="gradient_2"
       gradientUnits="userSpaceOnUse"
       x1="791.77368"
       y1="158.23056"
       x2="799.45844"
       y2="187.01111"
       gradientTransform="matrix(0.69865891,0,0,0.69865891,452.28286,102.75173)"><stop
         offset="0"
         stop-color="#040000"
         id="stop69" /><stop
         offset="1"
         stop-color="#221313"
         id="stop70" /></linearGradient></defs><defs
     id="defs72"><linearGradient
       id="gradient_3"
       gradientUnits="userSpaceOnUse"
       x1="687.62524"
       y1="310.17313"
       x2="680.60168"
       y2="304.02301"
       gradientTransform="matrix(0.69865891,0,0,0.69865891,452.28286,102.75173)"><stop
         offset="0"
         stop-color="black"
         id="stop71" /><stop
         offset="1"
         stop-color="#271614"
         id="stop72" /></linearGradient></defs><g
     id="g87"
     style="display:inline"><path
       fill="#2c1e1c"
       d="m 1065.8451,262.37782 c 3.7057,0.95786 7.396,2.99166 10.6532,4.95349 9.9531,5.9938 21.6165,15.34954 24.518,27.23862 -4.644,-4.19266 -8.5753,-10.14104 -12.9895,-14.74241 -6.6624,-6.94467 -14.4112,-11.92471 -22.1817,-17.4497 z"
       id="path2"
       style="stroke-width:0.698659" /><path
       fill="#2c1e1c"
       d="m 1106.4875,201.75519 c 1.0375,-0.0671 2.0743,-0.072 3.1139,-0.0587 2.2399,0.0286 7.5448,0.14602 9.121,1.76271 -0.5512,0.94389 -2.5801,0.98861 -3.6204,1.14022 -16.2746,2.36496 -29.5791,5.12326 -44.615,12.1371 l -10.0949,4.90039 c 12.5828,-10.53158 29.7314,-18.34608 46.0954,-19.88173 z"
       id="path3"
       style="stroke-width:0.698659" /><path
       fill="#2c1e1c"
       d="m 1089.4179,234.59565 q 4.6174,-0.2082 9.2174,0.23684 c 11.5488,1.0438 23.9039,5.365 31.4857,14.4846 -5.5808,-2.13231 -10.8452,-4.92205 -16.4708,-6.96633 -16.0126,-5.56621 -29.1991,-5.36081 -45.7391,-3.14816 6.9509,-3.09156 13.985,-4.13815 21.5068,-4.60695 z"
       id="path4"
       style="stroke-width:0.698659" /><path
       fill="#2c1e1c"
       d="m 924.78167,139.56986 c 4.8941,-0.42779 10.707,0.30574 15.024,2.78046 1.6097,0.92299 3.9355,2.73056 4.2569,4.71126 0.146,0.90002 0.022,1.64339 -0.5792,2.35714 -2.2385,2.65574 -8.0905,2.61634 -11.2812,2.62989 -5.2784,-0.13994 -13.2319,-0.26863 -17.936,-2.72756 -1.0787,-0.56375 -2.2113,-1.46628 -2.4544,-2.73043 -0.2131,-1.10884 0.1516,-2.28762 0.83,-3.1715 2.4034,-3.13334 8.5139,-3.47827 12.1399,-3.84926 z"
       id="path5"
       style="stroke-width:0.698659" /><path
       fill="#604a47"
       d="m 925.14987,142.02775 c 1.1807,-0.10201 2.4572,-0.0683 3.6386,0.0261 2.8149,0.22468 9.1539,1.46306 10.8607,3.82753 0.3332,0.46181 0.1816,0.39369 0.01,1.03876 -2.4984,1.86018 -7.4848,1.63403 -10.482,1.61174 -3.1559,-0.1521 -9.3062,-0.33424 -12.1567,-0.79947 -1.1171,-0.18221 -2.0869,-0.66373 -2.7199,-1.63144 -0.3737,-0.57109 -0.1816,-0.67372 -0.027,-1.28218 2.4935,-2.25255 7.6699,-2.54368 10.8774,-2.791 z"
       id="path6"
       style="stroke-width:0.698659" /><path
       fill="#c8c7c2"
       d="m 574.49264,283.11615 c 2.91969,-0.16419 5.48447,-0.0782 8.17221,1.20169 q 0.313,0.15021 0.61762,0.31579 0.30531,0.16559 0.60154,0.34584 0.29623,0.18025 0.58338,0.37518 0.28785,0.19423 0.56452,0.40313 0.27736,0.20889 0.54425,0.43037 0.26689,0.22217 0.5219,0.45692 0.25571,0.23545 0.49884,0.48208 0.24314,0.24732 0.47439,0.50652 0.23126,0.25851 0.44924,0.52889 0.21798,0.26968 0.42199,0.55054 0.20471,0.28017 0.39474,0.57011 0.19074,0.28994 0.3661,0.58967 0.17606,0.29902 0.33675,0.60643 0.16069,0.30741 0.30602,0.62251 0.14602,0.31509 0.27527,0.63648 0.12995,0.32208 0.24383,0.64975 c 1.16606,3.39129 1.17584,7.50918 -0.56522,10.71044 -1.67189,3.0755 -4.41692,4.45884 -7.63773,5.44605 -2.84634,0.68678 -5.78141,0.63578 -8.51037,-0.49605 -3.07969,-1.27785 -5.4195,-3.82167 -6.59045,-6.92651 -1.3519,-3.58621 -1.21706,-8.20016 0.37867,-11.69066 1.58037,-3.45696 4.15423,-5.03174 7.55251,-6.31517 z"
       id="path7"
       style="stroke-width:0.698659" /><path
       fill="#fefefe"
       d="m 576.40906,288.74384 c 1.00677,0.0978 2.06523,0.33676 3.00353,0.71543 2.22174,0.89778 4.09345,2.48862 4.98214,4.75368 0.65953,1.67957 0.61133,3.51076 -0.20541,5.12745 -1.05567,2.0883 -3.02589,2.98677 -5.13304,3.71338 -1.66421,-0.014 -3.03917,-0.1607 -4.51404,-0.9921 -2.01842,-1.13742 -3.67774,-3.0727 -4.19335,-5.36221 -0.3654,-1.62298 -0.14043,-3.33959 0.77132,-4.74599 1.27994,-1.97371 3.08877,-2.708 5.28885,-3.20964 z"
       id="path8"
       style="stroke-width:0.698659" /><path
       fill="#c8c7c2"
       d="m 563.56701,372.30764 c 4.31072,0.0768 8.26863,1.20379 11.64385,3.99144 3.61975,2.98956 5.71643,7.2926 6.13073,11.94148 0.44016,4.94231 -0.7832,10.03763 -4.08087,13.84323 -4.05362,4.67752 -9.6904,5.92951 -15.56751,6.32006 -4.33379,-0.24313 -8.3902,-1.07593 -11.97502,-3.66656 -3.61695,-2.61368 -5.87851,-6.75882 -6.43674,-11.15968 -0.64836,-5.11278 0.92642,-10.60005 4.24365,-14.54957 4.2723,-5.08833 9.77494,-6.2502 16.04191,-6.7204 z"
       id="path9"
       style="stroke-width:0.698659" /><path
       fill="#fefefe"
       d="m 560.75281,378.5299 c 3.79861,-0.3123 7.21435,-0.11668 10.42749,2.17632 q 0.47578,0.33955 0.91524,0.72521 0.43946,0.38496 0.83839,0.81254 0.39893,0.42758 0.75315,0.89219 0.35422,0.4653 0.66024,0.96345 0.30601,0.49814 0.56032,1.02423 0.25501,0.52609 0.45553,1.07524 0.20121,0.54914 0.34583,1.11506 0.14532,0.56661 0.23266,1.1444 c 0.46041,2.97838 -0.20122,6.13912 -2.00655,8.57394 -2.21266,2.98397 -5.72411,4.30654 -9.28867,4.82843 -3.6463,0.38357 -7.38483,0.29554 -10.6804,-1.52028 -2.40479,-1.32466 -4.37081,-3.45137 -5.08694,-6.14331 -0.76712,-2.88196 -0.0964,-6.12304 1.41269,-8.65428 2.30977,-3.87197 6.18942,-6.01616 10.46102,-7.01314 z"
       id="path10"
       style="stroke-width:0.698659" /><path
       fill="#c8c7c2"
       d="m 516.738,315.67435 c 5.90017,-0.68748 11.15828,0.29483 16.3556,3.1782 6.03921,3.35007 12.30478,9.07348 14.16322,15.92453 1.37077,5.0555 0.93061,10.23396 -1.82001,14.77105 -3.67634,6.06366 -9.25444,8.53482 -15.90567,10.10889 -7.33312,1.09271 -14.56284,0.60504 -20.94509,-3.52333 -5.15122,-3.33191 -9.25234,-8.98685 -10.47989,-15.02885 -1.0913,-5.3671 -0.27527,-11.48316 2.85193,-16.0503 3.61626,-5.28046 9.61704,-8.2798 15.77991,-9.38019 z"
       id="path11"
       style="stroke-width:0.698659" /><path
       fill="#fefefe"
       d="m 518.48115,322.64766 c 4.32261,-0.40592 8.03737,0.14533 11.88279,2.27763 4.78512,2.65351 9.35225,7.13331 10.79428,12.54023 0.81045,3.03847 0.45832,6.07624 -1.23942,8.74861 -2.84005,4.46932 -7.72088,6.36897 -12.67297,7.37295 -5.46561,0.63997 -10.54276,0.0929 -15.23985,-3.00563 -3.94253,-2.60041 -7.14588,-6.70713 -8.01711,-11.42448 q -0.11947,-0.6211 -0.17746,-1.25059 -0.058,-0.63019 -0.0538,-1.26248 0.005,-0.63299 0.0713,-1.26178 0.0671,-0.62879 0.19562,-1.2478 0.12856,-0.61971 0.31789,-1.22336 0.18864,-0.60364 0.43666,-1.18562 0.24733,-0.58198 0.55125,-1.13672 0.30391,-0.55473 0.66093,-1.07663 c 2.96021,-4.26252 7.64682,-5.89179 12.48992,-6.86433 z"
       id="path12"
       style="stroke-width:0.698659" /><path
       fill="#c8c7c2"
       d="m 985.47627,635.43024 0.4688,0.20401 c 9.5576,4.11021 27.05773,5.9386 37.81283,8.29517 28.5025,6.24462 98.3768,25.13985 110.2128,54.11044 2.5759,6.3047 2.7387,13.35067 0.038,19.63231 -8.0185,18.6507 -30.6879,28.14687 -48.4241,35.08945 -11.0087,4.30933 -22.2669,7.56158 -33.66,10.65804 -34.7953,9.45635 -70.35143,14.8989 -106.14373,18.86589 q -31.2573,3.44718 -62.64245,5.41181 -31.38515,1.96463 -62.8283,2.44321 -21.97631,0.61901 -43.96031,0.3626 -21.984,-0.25641 -43.94006,-1.38753 -21.95605,-1.13043 -43.84993,-3.13419 -21.89387,-2.00375 -43.69063,-4.87664 c -39.68872,-5.54525 -80.36883,-13.76148 -117.20004,-29.91168 -14.3981,-6.31378 -34.59451,-17.27225 -40.63253,-32.44921 -2.63157,-6.61491 -2.24388,-14.65857 0.64067,-21.11837 9.06587,-20.30093 34.54093,-30.77243 54.07054,-38.09857 q 10.03554,-3.67005 20.28416,-6.69455 10.24863,-3.02519 20.66843,-5.39225 l 16.78598,-3.6959 c 2.36077,-0.51282 5.34055,-0.77901 7.51408,-1.73337 2.09737,2.40827 5.34054,9.38857 7.27513,12.48922 19.86497,31.8323 48.79504,57.66591 83.68676,71.83751 6.9314,2.81559 13.95711,5.33286 21.26159,6.99567 q -1.98489,2.22383 -3.9055,4.50356 c -5.29025,6.32565 -13.51207,16.12295 -12.52276,24.9533 0.37937,3.385 2.22942,6.21317 4.91995,8.24138 11.57538,8.72625 41.49126,6.58905 55.87106,4.82983 31.55702,-3.85939 62.55931,-14.92266 85.32581,-37.89247 4.36033,-4.39875 8.13798,-9.37321 11.94427,-14.24565 25.12168,-6.04131 43.07018,-15.04772 64.82928,-28.64781 2.6165,3.50657 6.1684,6.26138 9.849,8.57673 15.7051,9.87904 43.4922,9.29636 61.5176,6.81333 7.26043,-1.00048 14.42173,-2.65491 21.56133,-4.28907 6.2257,-1.42457 16.6232,-4.54338 20.078,-10.42818 1.0564,-1.80045 1.4798,-4.19825 0.8489,-6.21667 -2.8477,-9.10492 -23.2087,-8.39648 -30.9883,-12.35578 -12.75333,-6.49194 -18.88483,-28.85182 -23.07603,-41.74557 z"
       id="path13"
       style="stroke-width:0.698659" /><path
       fill="#fefefe"
       d="m 1015.3013,727.11385 c 1.4134,-0.12227 2.7234,-0.0678 4.1221,0.20051 4.9912,0.95787 8.5544,3.55827 11.4105,7.67338 -3.6931,-2.0876 -7.1577,-3.76019 -11.3008,-4.75508 -7.2884,-0.47928 -9.9112,0.96765 -15.9084,4.47561 3.241,-3.98794 6.617,-6.45421 11.6766,-7.59442 z"
       id="path14"
       style="stroke-width:0.698659" /><path
       fill="#fefefe"
       d="m 1070.9209,702.69502 c 2.2161,-0.0265 4.3205,0.17746 6.4626,0.7825 7.6105,2.14977 12.7603,7.4505 16.4862,14.19884 -3.3305,-2.80162 -6.6316,-5.42648 -10.3261,-7.74183 -2.2923,-1.39942 -4.7894,-2.59273 -7.3856,-3.29907 -7.7642,-2.11414 -13.6581,0.24034 -20.3603,4.03266 4.5818,-4.22829 8.8248,-7.20527 15.1232,-7.9731 z"
       id="path15"
       style="stroke-width:0.698659" /><path
       fill="#fefefe"
       d="m 1097.7389,718.39459 c 2.3468,-0.13065 4.6754,-0.14043 7.0062,0.21798 5.8184,0.89428 10.512,3.71197 14.0144,8.44469 -6.2104,-2.67517 -11.2701,-4.81446 -18.1358,-5.05061 -8.335,0.0405 -13.9914,2.18052 -21.096,6.5115 4.456,-5.35871 11.219,-9.38299 18.2112,-10.12356 z"
       id="path16"
       style="stroke-width:0.698659" /><path
       fill="#fefefe"
       d="m 611.12855,738.2875 c 5.91135,-0.52749 12.01204,0.12506 17.42106,2.68984 6.32776,3.00004 10.45194,8.1261 12.80642,14.61524 -4.56644,-4.83611 -8.89113,-8.27771 -15.01977,-10.95427 -2.02332,-0.76154 -4.00541,-1.43085 -6.13632,-1.8249 -10.56303,-1.95345 -19.75458,0.79997 -28.45219,6.75114 q 0.49465,-0.78249 1.0417,-1.52936 c 4.43858,-6.08462 11.16038,-8.54809 18.3391,-9.74769 z"
       id="path17"
       style="stroke-width:0.698659" /><path
       fill="#fefefe"
       d="m 550.19921,717.3445 c 6.32356,-0.70704 13.34857,-0.48976 19.45904,1.35959 8.04227,2.43343 13.73704,6.61351 17.68586,14.05213 -6.49963,-5.2127 -11.44194,-7.75581 -19.48909,-10.13475 -15.17208,-2.88616 -27.99247,-0.84118 -41.91255,5.50264 6.80843,-6.63097 15.00929,-9.45355 24.25674,-10.77961 z"
       id="path18"
       style="stroke-width:0.698659" /><path
       fill="#fefefe"
       d="m 580.9926,709.66414 c 5.05969,-0.37378 9.94541,-0.008 14.73402,1.75713 5.30841,1.95694 9.30404,4.92205 11.72978,10.14034 3.88664,-2.55081 9.20553,-3.39199 13.76847,-3.56526 5.79188,-0.22008 13.60708,0.98511 18.03518,5.04222 -9.65337,-2.62905 -19.82654,-2.50609 -29.329,0.75036 -4.09624,1.72289 -7.9165,3.70429 -11.73048,5.97773 2.55849,-3.18868 5.29793,-5.37688 8.59769,-7.78795 -2.14767,-1.74246 -4.2723,-3.283 -6.7176,-4.586 -13.25775,-7.06344 -23.45957,-4.12908 -37.00587,-0.0454 5.38876,-4.47352 10.96755,-6.86433 17.91781,-7.68316 z"
       id="path19"
       style="stroke-width:0.698659" /><path
       fill="#fefefe"
       d="m 914.33537,742.15947 c 4.7592,-0.50443 9.3781,0.0971 13.7363,2.11274 4.1577,1.92271 7.9612,4.94651 9.5779,9.34666 1.82,-1.67259 3.5443,-2.90921 5.9114,-3.72106 5.9728,-2.04916 12.5926,-0.95925 18.1204,1.85215 3.4402,1.74944 7.252,4.44626 8.5201,8.28051 -0.962,0.0175 -5.2776,-3.48492 -6.6337,-4.18218 q -1.3044,-0.68259 -2.6647,-1.24431 -1.3603,-0.56172 -2.766,-0.99838 -1.4057,-0.43666 -2.8449,-0.74477 -1.4393,-0.30811 -2.9002,-0.48487 c -5.0031,-0.50653 -10.287,0.28226 -14.537,3.06851 -5.7758,-5.47679 -11.321,-8.87018 -19.4576,-9.13497 -9.7002,-0.31509 -16.7944,3.31444 -23.695,9.83991 0.9222,-2.02401 1.8458,-3.92855 3.2271,-5.68359 4.1311,-5.24902 9.9503,-7.52036 16.4059,-8.30635 z"
       id="path20"
       style="stroke-width:0.698659" /><path
       fill="#2c1e1c"
       d="m 755.24512,310.93322 c -1.99537,2.6004 -3.46954,5.65354 -5.72062,8.04645 -0.9383,0.99629 -2.06105,1.95485 -3.50867,1.90385 -0.8307,-0.0286 -1.49163,-0.53238 -1.96882,-1.18353 -2.26086,-3.08668 1.3561,-18.33072 2.26715,-21.80585 12.83646,-48.96481 49.30785,-99.67068 93.3059,-125.17312 20.5245,-11.89607 44.46125,-20.65976 68.52381,-19.26014 12.1552,0.70697 24.7143,3.72504 36.4448,6.87145 19.7329,5.29297 30.3169,10.07906 43.2896,26.41986 5.177,6.52128 9.6184,13.10194 13.77613,20.32119 4.6741,-1.73407 9.4641,-3.3333 14.4211,-4.01589 9.8469,-1.3554 17.8081,1.53076 25.589,7.45538 l 0.61,-0.37238 c 1.7291,-3.77555 5.1379,-7.05156 7.8438,-10.17038 10.9857,-12.6597 22.6065,-25.25652 38.7253,-31.27476 4.0082,-1.49639 7.9759,-2.26471 12.2377,-2.49275 -6.7162,3.51649 -13.4059,6.72382 -19.8685,10.73343 -13.2514,8.22112 -28.4696,21.75065 -38.7134,33.4413 -0.01,0.29694 -0.1404,0.61552 -0.027,0.8901 0.5771,1.39662 5.8464,7.31775 7.4149,10.2095 2.2049,4.06759 3.5806,8.58442 4.3107,13.14177 1.908,11.91563 -1.1612,21.3622 -6.441,31.89169 -1.6711,3.3347 -3.6029,6.73018 -4.1339,10.47778 -0.7273,5.13794 1.3344,10.51552 3.1677,15.2161 1.5685,4.02008 3.4605,8.06042 3.9209,12.3949 1.5007,14.14366 -10.6895,28.82318 -20.3079,37.88898 -13.3905,12.62197 -30.2639,22.85453 -46.58103,31.24821 -6.6764,3.43461 -13.6386,6.43535 -20.2136,10.03973 7.528,11.60054 13.06,24.12749 18.5354,36.78649 14.5551,33.6523 23.16963,65.11431 24.74723,101.8491 0.8649,20.14234 -0.4842,39.51056 -4.7076,59.24488 -3.50653,16.38495 -9.81753,33.33441 -19.25573,47.25519 0.8775,2.15955 1.7997,4.31073 2.548,6.51849 4.1912,12.89375 10.3227,35.25363 23.07603,41.74557 7.7796,3.9593 28.1406,3.25086 30.9883,12.35578 0.6309,2.01842 0.2075,4.41622 -0.8489,6.21667 -3.4548,5.8848 -13.8523,9.00361 -20.078,10.42818 -7.1396,1.63416 -14.3009,3.28859 -21.56133,4.28907 -18.0254,2.48303 -45.8125,3.06571 -61.5176,-6.81333 -3.6806,-2.31535 -7.2325,-5.07016 -9.849,-8.57673 -21.7591,13.60009 -39.7076,22.6065 -64.82928,28.64781 -3.80629,4.87244 -7.58394,9.8469 -11.94427,14.24565 -22.7665,22.96981 -53.76879,34.03308 -85.32581,37.89247 -14.3798,1.75922 -44.29568,3.89642 -55.87106,-4.82983 -2.69053,-2.02821 -4.54058,-4.85638 -4.91995,-8.24138 -0.98931,-8.83035 7.23251,-18.62765 12.52276,-24.9533 q 1.92061,-2.27973 3.9055,-4.50356 c -7.30448,-1.66281 -14.33019,-4.18008 -21.26159,-6.99567 -34.89172,-14.1716 -63.82179,-40.00521 -83.68676,-71.83751 -1.93459,-3.10065 -5.17776,-10.08095 -7.27513,-12.48922 q -3.93136,-7.24789 -7.46238,-14.69909 -3.53102,-7.4512 -6.65193,-15.08335 -3.12021,-7.63215 -5.82123,-15.42289 -2.70101,-7.79005 -4.97445,-15.71633 c -5.35452,0.91594 -10.56023,2.47465 -15.96785,3.16632 -20.74667,2.6549 -36.45113,-4.03685 -51.54691,-17.84096 -6.25691,-5.72131 -12.26671,-11.81572 -19.7949,-15.91195 q -2.7947,-1.49094 -5.77322,-2.56827 -2.9786,-1.07733 -6.08022,-1.7194 c -2.58148,-0.5212 -5.30792,-0.8328 -7.77866,-1.75503 -0.60497,-0.22567 -1.19974,-1.01725 -1.3707,-1.63836 -0.5059,-1.83677 1.52168,-4.74529 2.52963,-6.24252 7.60679,-11.3022 21.44471,-17.13041 34.36613,-19.63371 22.33382,-4.32679 44.4827,1.08153 63.17532,13.59031 -1.26807,-13.95361 3.26064,-28.72256 10.24304,-40.70316 q 0.49814,-0.84398 1.01655,-1.67609 0.5191,-0.8321 1.05777,-1.65093 0.53866,-0.81883 1.09689,-1.62508 0.55823,-0.80555 1.13672,-1.59713 0.57779,-0.79228 1.17445,-1.56919 0.59735,-0.77761 1.21287,-1.54054 0.61621,-0.76294 1.2499,-1.5105 0.63438,-0.74757 1.28693,-1.47907 0.65185,-0.73219 1.32186,-1.44762 0.67001,-0.71612 1.3568,-1.41548 0.68678,-0.69936 1.39103,-1.38125 0.70355,-0.68259 1.42386,-1.34771 0.72032,-0.66443 1.45671,-1.31208 0.73638,-0.64696 1.48814,-1.27645 0.75176,-0.6288 1.51888,-1.23942 0.76643,-0.61063 1.54823,-1.2024 0.7818,-0.59176 1.57688,-1.16466 0.79577,-0.5722 1.60551,-1.12554 0.80905,-0.55334 1.63207,-1.08641 0.82232,-0.53308 1.65792,-1.0459 0.8356,-0.51281 1.68307,-1.00537 0.84747,-0.49255 1.70682,-0.96415 0.85935,-0.47159 1.72988,-0.92223 0.87053,-0.45063 1.75224,-0.88031 0.88101,-0.42897 1.7725,-0.83699 0.89148,-0.40732 1.79275,-0.79368 0.90127,-0.38566 1.81163,-0.74966 0.91035,-0.364 1.82909,-0.70494 0.91873,-0.34165 1.84585,-0.66094 0.92712,-0.31928 1.86123,-0.61551 0.93481,-0.29624 1.8759,-0.57011 0.94109,-0.27317 1.88917,-0.52399 c 3.03917,-0.79089 8.41535,-2.32514 11.27636,-0.64137 0.37308,0.53517 0.53657,0.93061 0.54984,1.57897 0.0831,4.05012 -3.32701,8.93794 -4.46862,12.86091 -1.11995,3.84542 -1.79765,8.08698 -2.25038,12.05396 -4.43579,38.84194 9.44657,59.35387 -21.56201,92.99709 21.70873,13.66018 57.4088,31.46201 83.5624,26.05579 q 2.45509,-0.50863 4.84729,-1.26038 2.39221,-0.75176 4.69709,-1.73896 2.30418,-0.98791 4.49866,-2.20078 2.19449,-1.21357 4.25623,-2.64023 c 14.70607,-9.98454 29.94103,-30.66624 39.73832,-45.49527 q 15.17837,-23.41276 28.94195,-47.68487 c 12.68345,-22.88248 31.34254,-55.89271 25.44166,-82.84977 -2.98816,-13.6483 -12.48992,-24.97566 -21.20988,-35.43877 -9.33548,-11.2009 -22.92789,-29.28359 -25.74558,-43.61798 l -0.0838,-0.45203 c -1.43575,4.39876 -3.0734,10.54626 -5.73949,14.28338 -0.7287,1.02144 -1.34491,1.52448 -2.6025,1.75224 -1.27575,-0.30811 -1.96183,-0.74966 -2.63045,-1.89057 -4.39457,-7.49731 -1.17025,-28.82318 0.87612,-37.64933 z"
       id="path21"
       style="stroke-width:0.698659" /><path
       fill="#c8c7c2"
       d="m 635.3287,461.35658 c 0.55264,-1.05847 1.05637,-2.18751 1.76062,-3.15235 l 0.32557,-0.0755 c -0.51002,2.37335 -1.72429,4.48679 -2.42574,6.80214 -1.26387,4.17659 -1.90943,8.8059 -2.59971,13.11034 -0.89219,-2.32025 1.11646,-5.14632 -0.0363,-7.33941 -0.92223,0.65045 -1.43574,2.94205 -1.94437,4.07248 l -0.44085,-0.0678 c 1.29112,-4.56923 3.26343,-9.09864 5.36081,-13.34997 z"
       id="path22"
       style="stroke-width:0.698659" /><path
       fill="#c8c7c2"
       d="m 623.92309,463.79909 c 2.28811,-2.16235 7.27653,-5.14143 10.44425,-5.50613 0.66583,-0.0769 0.74687,-0.0915 1.26108,0.35701 l -0.82162,1.55522 -1.3002,2.05755 c -1.88568,0.42548 -8.14776,2.31884 -9.58351,1.53635 z"
       id="path23"
       style="stroke-width:0.698659" /><path
       fill="#fefefe"
       d="m 931.08987,691.0365 c 4.6126,3.67984 9.3299,7.17034 14.8074,9.47591 3.3193,1.39732 10.7628,3.3878 13.2207,5.22457 -8.7814,-1.18981 -16.2529,-3.92436 -23.797,-8.52992 -1.5084,-0.92154 -3.3431,-1.87241 -4.5371,-3.1817 -0.6302,-0.69027 -0.8964,-1.08501 -0.8656,-2.01633 z"
       id="path24"
       style="stroke-width:0.698659" /><path
       fill="#fefefe"
       d="m 762.60339,300.37229 c 0.80276,3.67005 -0.9362,8.72625 -1.64743,12.44381 -1.4602,7.62796 -3.35147,19.40944 -1.34073,26.91374 q -1.00328,3.2285 -2.11484,6.42137 c -1.37496,-14.28687 -0.79717,-32.36677 5.103,-45.77892 z"
       id="path25"
       style="stroke-width:0.698659" /><path
       fill="#fefefe"
       d="m 961.66107,231.84363 c 6.2656,-3.10274 12.3663,-6.35151 18.4083,-9.87485 9.3117,-5.42927 18.599,-11.88279 29.03973,-14.85069 8.152,-2.31675 16.5373,-2.51307 24.0947,1.70543 -0.4674,0.28295 -0.8517,0.466 -1.4134,0.45622 -1.9346,-0.0328 -3.9907,-0.50513 -5.9128,-0.77691 -5.6542,-0.80066 -11.5649,-1.17025 -17.1171,0.38706 -7.906,2.21754 -14.58313,7.02851 -21.46913,11.2512 -5.2742,3.2334 -10.5826,6.21946 -16.2012,8.81568 -2.7262,1.25968 -5.613,2.73246 -8.5907,3.23898 z"
       id="path26"
       style="stroke-width:0.698659" /><path
       fill="#fefefe"
       d="m 709.5661,758.14199 c 0.0573,1.4588 -0.0356,2.98677 0.76154,4.26881 3.05244,4.90877 10.65315,5.56831 15.84698,6.10138 24.25953,2.49212 50.68281,-2.64163 73.57507,-10.48547 3.01401,-1.03332 14.86816,-5.8862 17.01654,-5.94349 0.34723,-0.01 0.6735,0.17047 1.01026,0.25571 -25.31661,13.4932 -57.14611,20.44485 -85.77715,19.1733 -5.26719,-0.23406 -10.71044,-0.40313 -15.79738,-1.91503 -3.0217,-0.89778 -6.26417,-2.52635 -7.78376,-5.44046 -0.45203,-0.86494 -0.68468,-1.82419 -0.92083,-2.76529 0.42828,-1.40151 0.72521,-3.0196 1.86123,-4.02986 z"
       id="path27"
       style="stroke-width:0.698659" /><path
       fill="#fefefe"
       d="m 976.06677,641.41006 c 0.955,-1.61809 1.9164,-3.19986 2.9951,-4.7404 4.2604,14.44058 11.1492,37.24061 25.18323,44.76168 q 2.258,1.18492 4.6433,2.08689 2.3852,0.90197 4.8626,1.50771 c 5.4614,1.37566 15.6891,1.73477 19.4702,6.20549 -2.3915,0.153 -5.4257,-0.89359 -7.8808,-1.26388 -9.9454,-1.49862 -17.9884,-1.88149 -26.70283,-7.75441 -13.3995,-9.03017 -19.6889,-25.59118 -22.5708,-40.80308 z"
       id="path28"
       style="stroke-width:0.698659" /><path
       fill="#fefefe"
       d="m 587.37275,547.44113 c -1.67329,-2.70031 -4.09624,-5.18544 -5.4181,-8.05553 -4.41692,-9.587 -1.42317,-26.20251 2.18541,-35.66933 6.77978,-17.78926 20.54057,-33.0312 37.97909,-40.83662 -1.1458,1.25549 -2.41456,2.41666 -3.63162,3.60299 -3.42483,3.10623 -6.45631,6.457 -9.08676,10.26749 -1.68098,0.34164 -2.40758,0.76014 -3.63093,1.93249 -12.17274,11.65922 -20.19334,30.23306 -20.76904,47.06376 -0.16069,4.70337 0.53588,9.30823 1.30091,13.93265 0.38985,2.36007 1.27505,5.40623 1.07104,7.7621 z"
       id="path29"
       style="stroke-width:0.698659" /><path
       fill="#fefefe"
       d="m 480.12721,540.2687 c 8.44742,-11.36858 22.08279,-16.48765 35.73948,-18.45088 q 0.93445,-0.14323 1.87226,-0.2634 0.93774,-0.12016 1.87828,-0.21658 0.94053,-0.0957 1.88316,-0.16838 0.9425,-0.0727 1.88708,-0.12156 0.94389,-0.0489 1.88918,-0.0741 0.94458,-0.0251 1.89057,-0.0265 0.94528,-0.001 1.89057,0.021 0.94458,0.0224 1.88917,0.0685 0.94459,0.0461 1.88708,0.11598 0.94319,0.0699 1.88358,0.16348 0.9411,0.0936 1.8787,0.2103 0.9383,0.11737 1.8731,0.2585 0.93481,0.14043 1.86612,0.30462 0.93131,0.16418 1.85773,0.35142 0.92643,0.18794 1.84796,0.39894 0.92223,0.21029 1.83817,0.44434 0.91594,0.23405 1.82559,0.49046 0.90966,0.25711 1.81302,0.53657 0.90337,0.28016 1.79905,0.58199 0.89568,0.30251 1.78368,0.62739 0.88799,0.32418 1.7676,0.67141 0.87892,0.34654 1.74945,0.71543 0.87053,0.36889 1.73197,0.76014 0.86075,0.39055 1.71172,0.80276 0.85026,0.41221 1.69075,0.84538 0.84049,0.43386 1.6691,0.88799 0.8293,0.45483 1.64674,0.92992 0.81673,0.47508 1.62228,0.97043 0.80486,0.49535 1.59783,1.01166 0.79228,0.51561 1.57129,1.05079 0.779,0.53517 1.54473,1.0899 0.76573,0.55544 1.51679,1.12904 c 7.51268,5.68359 13.67695,12.44032 18.59621,20.45254 l -0.40802,0.49465 c -2.81979,-1.01096 -7.16894,-7.73276 -10.35552,-9.70717 -4.1675,-4.08995 -9.2726,-7.69014 -14.14924,-10.88301 -4.43579,-2.28042 -8.8562,-4.55106 -13.57704,-6.1985 -19.42132,-6.77629 -40.72769,-5.03454 -59.13673,3.88245 -1.39138,0.93969 -2.82698,1.84585 -4.17518,2.84563 l -1.10458,1.33025 c -0.53364,1.20519 -0.29009,2.18121 -0.0995,3.45207 q -4.171,-0.99209 -8.38419,-1.78577 z"
       id="path30"
       style="stroke-width:0.698659" /><path
       fill="#c8c7c2"
       d="m 489.71547,537.27215 c -0.003,-0.37098 -0.0232,-0.65394 0.0579,-1.02912 0.70089,-3.24108 7.56319,-5.51032 10.32045,-6.87411 -1.84167,2.20288 -4.80231,2.47046 -6.20312,5.0576 -1.39138,0.93969 -2.82698,1.84585 -4.17518,2.84563 z"
       id="path31"
       style="stroke-width:0.698659" /><path
       fill="#c8c7c2"
       d="m 500.09377,529.36892 c 14.00287,-7.09418 34.01742,-7.01313 48.67878,-2.23431 4.34146,1.41549 15.63528,5.64517 17.83187,9.60796 -4.43579,-2.28042 -8.8562,-4.55106 -13.57704,-6.1985 -19.42132,-6.77629 -40.72769,-5.03454 -59.13673,3.88245 1.40081,-2.58714 4.36145,-2.85472 6.20312,-5.0576 z"
       id="path32"
       style="stroke-width:0.698659" /><path
       fill="#fefefe"
       d="m 957.67877,187.98183 c -2.3266,-2.49841 -6.2314,-9.14964 -6.304,-12.52766 0.8572,-0.95227 2.0142,-1.0424 3.255,-1.10528 9.9496,-0.50652 18.8848,4.87525 25.9489,11.42098 7.5008,6.95096 13.19,14.30784 18.8973,22.77139 -2.9979,1.52028 -5.9057,3.09296 -8.7933,4.81586 -0.8021,0.3598 -1.6614,0.677 -2.402,1.14999 0.054,0.3626 0.048,0.10759 -0.292,0.70564 -0.7134,0.32837 -1.171,0.35213 -1.9367,0.16 -11.1946,-2.81141 -21.3447,-16.07894 -27.1638,-25.48149 z"
       id="path33"
       style="stroke-width:0.698659" /><path
       fill="#2c1e1c"
       d="m 977.07627,191.87335 q 3.0217,3.08877 5.3259,6.74486 c -0.7755,-0.36261 -1.1067,-0.55404 -1.973,-0.62181 l -0.2893,0.90197 c -0.9564,-0.71403 -1.1136,-1.78997 -2.3202,-2.2399 l -0.4674,1.0417 c -0.2536,-1.43505 -0.2243,-2.40688 0.1565,-3.82236 0.1851,-0.68818 -0.2033,-1.33514 -0.4325,-2.00446 z"
       id="path34"
       style="stroke-width:0.698659" /><path
       fill="#030101"
       d="m 980.13987,198.89837 0.2893,-0.90197 c 0.8663,0.0678 1.1975,0.2592 1.973,0.62181 3.0965,4.74459 5.7031,9.70227 8.2805,14.73891 -0.8021,0.3598 -1.6614,0.677 -2.402,1.14999 -2.4537,-5.58438 -4.6328,-10.55744 -8.1408,-15.60874 z"
       id="path35"
       style="stroke-width:0.698659" /><path
       fill="#2c1e1c"
       d="m 957.67877,187.98183 c 0.077,-1.32187 0.1229,-2.80023 0.568,-4.05921 0.3018,-0.85446 0.9229,-1.63696 1.7962,-1.94577 1.929,-0.68259 4.3646,0.5729 6.1384,1.30859 -2.0037,1.63347 -6.3878,-0.2599 -7.0718,2.66399 1.5559,0.18305 2.9393,-0.79298 4.4002,-0.40942 -0.8838,0.70984 -1.3114,0.82721 -1.4043,2.07292 -0.1572,2.11275 1.9024,5.36151 3.0761,7.08091 l -0.7517,1.38125 c -1.783,-2.07013 -2.8785,-4.81516 -4.7013,-6.75324 l -0.8404,0.56941 z"
       id="path36"
       style="stroke-width:0.698659" /><path
       fill="url(#gradient_0)"
       d="m 966.18137,183.28544 c 3.7162,1.96323 8.5223,5.02406 10.8949,8.58791 0.2292,0.66932 0.6176,1.31628 0.4325,2.00446 -0.3808,1.41548 -0.4101,2.38731 -0.1565,3.82236 -0.02,1.30789 -0.092,2.42435 -0.4227,3.69311 l -1.1213,-1.78717 c 0.1278,-2.23501 -0.4786,-3.94742 -1.5161,-5.91694 -2.2665,-4.30094 -6.3124,-6.72948 -10.7824,-8.14916 -1.4609,-0.38356 -2.8443,0.59247 -4.4002,0.40942 0.684,-2.92389 5.0681,-1.03052 7.0718,-2.66399 z"
       id="path37"
       style="fill:url(#gradient_0);stroke-width:0.698659" /><path
       fill="#fefefe"
       d="m 963.50977,185.54001 c 4.47,1.41968 8.5159,3.84822 10.7824,8.14916 1.0375,1.96952 1.6439,3.68193 1.5161,5.91694 -0.1223,0.23126 -0.2327,0.45762 -0.3948,0.66652 -0.5911,0.76224 -0.8866,1.041 -1.878,1.06825 -2.8442,0.0769 -6.6226,-4.69499 -8.3539,-6.64704 -1.1737,-1.7194 -3.2333,-4.96816 -3.0761,-7.08091 0.093,-1.24571 0.5205,-1.36308 1.4043,-2.07292 z"
       id="path38"
       style="stroke-width:0.698659" /><path
       fill="#604a47"
       d="m 959.72857,189.32185 c 1.8228,1.93808 2.9183,4.68311 4.7013,6.75324 l 0.7517,-1.38125 c 1.7313,1.95205 5.5097,6.72389 8.3539,6.64704 0.9914,-0.0272 1.2869,-0.30601 1.878,-1.06825 0.1621,-0.2089 0.2725,-0.43526 0.3948,-0.66652 l 1.1213,1.78717 c 0.3305,-1.26876 0.4031,-2.38522 0.4227,-3.69311 l 0.4674,-1.0417 c 1.2066,0.44993 1.3638,1.52587 2.3202,2.2399 3.508,5.0513 5.6871,10.02436 8.1408,15.60874 0.054,0.3626 0.048,0.10759 -0.292,0.70564 -0.7134,0.32837 -1.171,0.35213 -1.9367,0.16 -11.1946,-2.81141 -21.3447,-16.07894 -27.1638,-25.48149 z"
       id="path39"
       style="stroke-width:0.698659" /><path
       fill="#030101"
       d="m 965.18157,194.69384 c 1.7313,1.95205 5.5097,6.72389 8.3539,6.64704 0.9914,-0.0272 1.2869,-0.30601 1.878,-1.06825 0.1621,-0.2089 0.2725,-0.43526 0.3948,-0.66652 l 1.1213,1.78717 c -0.2788,0.27737 -0.4926,0.51072 -0.7923,0.74966 -0.8216,0.65325 -2.0547,0.90057 -3.0867,0.77901 -3.4891,-0.41151 -6.4828,-4.34566 -8.6207,-6.84686 z"
       id="path40"
       style="stroke-width:0.698659" /><path
       fill="#fefefe"
       d="m 749.2653,312.00566 c 2.97279,-16.52189 8.60328,-32.16277 16.15788,-47.13992 23.37433,-46.34204 56.3161,-84.12831 106.80119,-100.62239 25.5059,-8.33325 44.5702,-7.01495 70.1097,0.4681 5.27,1.54411 11.2904,2.82468 16.1733,5.29332 -3.2257,-0.58275 -6.4996,-0.4252 -9.7589,-0.67874 -3.654,-1.74218 -8.5628,-2.4683 -12.5248,-3.45208 -22.2083,-5.51319 -41.8546,-5.93014 -63.69748,1.79108 -7.02501,2.48318 -20.0536,8.37881 -26.12146,12.72167 -4.59927,1.94437 -7.76279,4.13048 -11.00876,7.95074 -4.75298,1.87101 -9.77005,6.67848 -13.68953,9.99292 -13.79013,11.66062 -28.43821,28.55489 -38.27044,43.65151 -3.25924,5.00449 -6.01196,10.36391 -8.84641,15.61642 q -8.44749,15.38727 -15.55704,31.43616 c -2.2413,5.14283 -4.28767,10.69856 -4.43299,16.3598 -1.97232,1.8249 -3.63373,4.49447 -5.33426,6.61141 z"
       id="path41"
       style="stroke-width:0.698659" /><path
       fill="#8c7b78"
       d="m 616.92882,646.58922 c 0.079,0.0559 0.15999,0.10969 0.23754,0.16768 3.50168,2.59132 6.17056,7.14798 9.20972,10.35272 4.33728,4.57273 9.22859,8.82127 14.0137,12.91401 24.76048,21.18125 55.88433,34.60179 87.34704,42.0425 4.65516,1.10109 9.41024,1.31558 14.04025,2.30069 q -8.79821,7.19688 -17.30858,14.73192 c -6.90694,-2.16864 -13.81598,-4.27789 -20.58528,-6.85524 q -1.46579,-0.55683 -2.9204,-1.14091 -1.4546,-0.58408 -2.89803,-1.19611 -1.44343,-0.61132 -2.87568,-1.2499 -1.43156,-0.63857 -2.85123,-1.30369 -1.41968,-0.66513 -2.82608,-1.3568 -1.4071,-0.69237 -2.80092,-1.41059 -1.39313,-0.71822 -2.77298,-1.4623 -1.37985,-0.74407 -2.74573,-1.51399 -1.36518,-0.76992 -2.71638,-1.56569 -1.35051,-0.79578 -2.68635,-1.6167 -1.33583,-0.82092 -2.6556,-1.6663 -1.31977,-0.84608 -2.62416,-1.71661 -1.3037,-0.87053 -2.59063,-1.76481 -1.28763,-0.89498 -2.55779,-1.81372 -1.27016,-0.91873 -2.52286,-1.86192 -1.25269,-0.94249 -2.48792,-1.90804 -1.23453,-0.96625 -2.4509,-1.95485 -1.21636,-0.9893 -2.41386,-2.00096 -1.1975,-1.01166 -2.37614,-2.04567 -1.17864,-1.03402 -2.33702,-2.08969 -1.15907,-1.05567 -2.29788,-2.1337 -1.13882,-1.07734 -2.25667,-2.17633 -1.11856,-1.09829 -2.21545,-2.21824 -1.09759,-1.11925 -2.17353,-2.25946 -1.07663,-1.14021 -2.13091,-2.29999 -1.05497,-1.16047 -2.08689,-2.33981 -1.03262,-1.17933 -2.04288,-2.37823 -1.01026,-1.1989 -1.99817,-2.41666 -0.9872,-1.21776 -1.95135,-2.45369 -0.96485,-1.23593 -1.90594,-2.49002 -0.94109,-1.2534 -1.85843,-2.52496 -0.91664,-1.27156 -1.81023,-2.55988 c -3.18728,-4.64399 -6.80633,-9.62123 -9.1154,-14.76406 z"
       id="path42"
       style="stroke-width:0.698659" /><path
       fill="#fefefe"
       d="m 958.68547,385.83574 c 0.888,-0.33745 1.5448,-0.81394 2.4761,-0.53727 2.833,4.85009 5.1051,10.24723 7.4714,15.34674 8.0521,17.3477 14.5964,34.64789 19.5834,53.10367 1.5643,5.78978 3.3641,11.52088 4.76,17.35538 9.12943,38.15237 11.68653,76.53529 1.6921,114.81482 -2.4578,9.41163 -5.7939,18.94134 -9.9705,27.73116 -9.3732,19.73013 -26.9445,44.63942 -42.6971,59.78844 -10.0761,9.6897 -21.7968,18.17352 -33.8487,25.22578 q -7.7984,4.5811 -16.0537,8.27631 c 0.941,-1.46369 18.7079,-12.71699 21.9141,-15.19234 25.9098,-20.0054 49.5873,-52.81651 62.4237,-82.82531 18.3042,-42.79216 17.4365,-82.18045 9.8141,-127.13496 -2.7576,-16.26688 -5.9044,-32.55681 -10.4757,-48.43034 -4.6761,-16.23823 -10.797,-31.86863 -17.0892,-47.52208 z"
       id="path43"
       style="stroke-width:0.698659" /><path
       fill="#8c7b78"
       d="m 976.06677,641.41006 c 2.8819,15.2119 9.1713,31.77291 22.5708,40.80308 8.71443,5.87292 16.75743,6.25579 26.70283,7.75441 2.4551,0.37029 5.4893,1.41688 7.8808,1.26388 0.2383,0.85306 0.2984,1.02283 -0.2047,1.83957 -2.5759,4.18426 -13.6056,7.15356 -18.2084,7.66568 -9.7554,1.08502 -20.82563,-0.25501 -29.75033,-4.35264 -3.3186,-1.52378 -6.3508,-3.55827 -9.6233,-5.12397 9.4277,8.24487 20.5468,11.34832 32.97533,10.59167 1.7257,-0.1048 3.4416,-0.35282 5.1463,-0.63508 -11.5474,5.00379 -35.02593,6.21038 -47.66043,5.33007 -1.9304,-0.13414 -4.5147,-0.10131 -6.3732,-0.63718 -0.1411,-0.0405 -0.2696,-0.11528 -0.4045,-0.17257 -2.4579,-1.83677 -9.9014,-3.82725 -13.2207,-5.22457 -5.4775,-2.30557 -10.1948,-5.79607 -14.8074,-9.47591 5.5718,-4.76485 11.37,-9.2705 16.6134,-14.40635 5.875,-5.75345 10.9243,-12.30338 16.0098,-18.74501 4.2513,-5.38597 8.6005,-10.72442 12.3537,-16.47508 z"
       id="path44"
       style="stroke-width:0.698659" /><path
       fill="#c8c7c2"
       d="m 846.40473,180.3867 c 6.06786,-4.34286 19.09645,-10.23849 26.12146,-12.72167 21.84288,-7.72122 41.48918,-7.30427 63.69748,-1.79108 3.962,0.98378 8.8708,1.7099 12.5248,3.45208 -1.2052,0.93473 -1.7948,1.69243 -2.0422,3.23045 -0.9844,6.11851 7.9333,17.24186 11.7263,22.11221 6.9684,8.94842 15.425,18.03937 25.7456,23.01732 -8.5446,4.56154 -16.8321,9.77773 -25.0756,14.86327 0.8454,0.15999 1.7558,-0.39824 2.5585,-0.70565 l 0.8384,0.35212 c 2.9777,-0.50652 5.8645,-1.9793 8.5907,-3.23898 5.6186,-2.59622 10.927,-5.58228 16.2012,-8.81568 6.886,-4.22269 13.56313,-9.03366 21.46913,-11.2512 5.5522,-1.55731 11.4629,-1.18772 17.1171,-0.38706 1.9221,0.27178 3.9782,0.74407 5.9128,0.77691 0.5617,0.01 0.946,-0.17327 1.4134,-0.45622 8.0374,4.41273 13.4093,12.80572 15.8875,21.45721 3.2215,11.24981 0.2927,22.559 -4.2863,32.97181 -1.7858,4.0613 -3.9453,7.69014 -4.2946,12.244 -0.218,2.84284 0.2578,5.74786 0.8565,8.51875 3.2117,14.87025 9.3865,20.33586 1.0711,35.32559 l -0.2418,0.42897 c -2.9518,5.18475 -6.9097,9.55975 -11.0625,13.79922 -22.0134,22.47376 -51.41373,36.49933 -79.12113,50.60735 -15.9601,8.1268 -32.1949,16.10549 -47.7309,25.01129 12.4445,-4.02008 24.7248,-9.47171 36.5671,-15.01348 5.9295,-2.77437 11.7961,-5.81913 17.8367,-8.33849 6.2922,15.65345 12.4131,31.28385 17.0892,47.52208 4.5713,15.87353 7.7181,32.16346 10.4757,48.43034 7.6224,44.95451 8.4901,84.3428 -9.8141,127.13496 -12.8364,30.0088 -36.5139,62.81991 -62.4237,82.82531 -3.2062,2.47535 -20.9731,13.72865 -21.9141,15.19234 -8.08772,4.45116 -17.92414,6.99288 -26.68951,9.83852 7.26814,-11.58447 13.41984,-23.46726 18.20705,-36.30372 11.64736,-31.23285 17.17586,-68.23103 15.70306,-101.51723 -0.3507,-7.93817 -0.9013,-16.11597 -2.7087,-23.87248 -0.49467,-2.15047 -1.106,-4.26741 -1.834,-6.35081 4.7229,57.35431 -7.79422,134.18653 -45.96545,179.15012 -2.54917,3.01261 -5.28256,5.84754 -8.20016,8.50477 -4.36872,3.95371 -17.44901,14.33788 -22.83427,15.94899 -0.33676,-0.0852 -0.66303,-0.26549 -1.01026,-0.25571 -2.14838,0.0573 -14.00253,4.91017 -17.01654,5.94349 -22.89226,7.84384 -49.31554,12.97759 -73.57507,10.48547 -5.19383,-0.53307 -12.79454,-1.19261 -15.84698,-6.10138 -0.79717,-1.28204 -0.70425,-2.81001 -0.76154,-4.26881 l -0.2075,-0.7804 0.17396,-0.22357 c 0.0769,-2.01703 2.23152,-4.85009 3.3892,-6.46819 13.87536,-19.39547 35.86635,-32.44572 54.00284,-47.4592 8.49755,-6.99963 16.57824,-14.45152 24.24206,-22.35569 4.21571,-4.38292 8.28354,-8.89882 12.20348,-13.54769 3.91994,-4.64888 7.68385,-9.42119 11.29173,-14.31692 3.60741,-4.89527 7.05109,-9.90325 10.33106,-15.02396 3.27951,-5.12117 6.38831,-10.34388 9.3264,-15.66813 1.48116,-3.43879 3.32632,-6.69035 4.86337,-10.1019 3.92297,-8.71158 7.72227,-18.44111 9.70926,-27.80733 -2.45229,5.08624 -4.64119,10.31081 -7.27164,15.30832 -17.16396,32.6113 -39.71736,63.55001 -67.24662,88.19031 -10.48058,9.3816 -21.86034,17.46857 -32.59663,26.47918 -4.63001,-0.98511 -9.38509,-1.1996 -14.04025,-2.30069 -31.46271,-7.44071 -62.58656,-20.86125 -87.34704,-42.0425 -4.78511,-4.09274 -9.67642,-8.34128 -14.0137,-12.91401 -3.03916,-3.20474 -5.70804,-7.7614 -9.20972,-10.35272 -0.0776,-0.058 -0.15859,-0.11179 -0.23754,-0.16768 -9.50246,-15.2154 -16.89707,-31.26708 -23.42324,-47.94128 -1.47463,-3.70336 -2.87405,-7.4349 -4.19824,-11.19461 -0.93131,-2.69612 -1.67958,-5.67241 -2.91201,-8.24068 -0.68469,-1.42527 -1.59504,-2.21056 -3.21523,-2.36077 -3.82306,-0.35422 -8.0241,1.05078 -11.76402,1.76202 -8.69202,1.65233 -18.2867,2.03938 -26.93679,-0.0657 -15.60874,-3.79721 -23.17033,-14.30713 -34.69645,-23.98286 -6.43759,-5.40413 -13.40133,-9.57303 -21.27144,-12.51089 -0.1906,-1.27086 -0.43415,-2.24688 0.0995,-3.45207 l 1.10458,-1.33025 c 1.3482,-0.99978 2.7838,-1.90594 4.17518,-2.84563 18.40904,-8.91699 39.71541,-10.65874 59.13673,-3.88245 4.72084,1.64744 9.14125,3.91808 13.57704,6.1985 4.87664,3.19287 9.98174,6.79306 14.14924,10.88301 3.18658,1.97441 7.53573,8.69621 10.35552,9.70717 l 0.40802,-0.49465 c 0.10829,-2.53544 -2.94415,-7.13401 -4.14445,-9.39697 0.20401,-2.35587 -0.68119,-5.40203 -1.07104,-7.7621 -0.76503,-4.62442 -1.4616,-9.22928 -1.30091,-13.93265 0.5757,-16.8307 8.5963,-35.40454 20.76904,-47.06376 1.22335,-1.17235 1.94995,-1.59085 3.63093,-1.93249 2.63045,-3.81049 5.66193,-7.16126 9.08676,-10.26749 0.50583,0.12506 0.99069,0.20051 1.44832,0.45692 1.37076,-0.79717 2.68913,-2.16864 3.98724,-3.14047 1.43575,0.78249 7.69783,-1.11087 9.58351,-1.53635 l 1.3002,-2.05755 0.5219,1.15139 c -2.09738,4.25133 -4.06969,8.78074 -5.36081,13.34997 l 0.44085,0.0678 c 0.50863,-1.13043 1.02214,-3.42203 1.94437,-4.07248 1.15279,2.19309 -0.85586,5.01916 0.0363,7.33941 -0.25082,3.64979 -0.79018,7.39111 -0.77691,11.0444 0.0671,17.83956 3.56316,35.67562 -2.3419,53.09947 -2.50959,7.40369 -6.7197,15.38587 -11.53486,21.54944 -1.71451,2.19379 -4.19405,4.23667 -5.66892,6.53595 -0.41291,0.64277 -0.52819,0.76853 -0.35352,1.48954 0.16069,0.66443 0.0622,0.41082 0.30881,0.89638 2.34609,2.80861 5.53477,5.12327 8.47613,7.26606 13.90331,10.12776 30.21001,17.34909 46.80106,21.78698 16.33534,4.37011 33.88985,4.84869 48.90054,-3.9097 27.01155,-15.76035 64.90471,-74.67546 79.63244,-102.88661 7.94515,-15.21819 15.16439,-31.08752 19.56594,-47.72539 12.11964,-45.80617 -16.36329,-58.243 -35.7902,-92.00849 -4.01309,-6.97541 -12.87488,-24.21831 -10.7838,-31.65204 0.0405,-0.14322 0.0852,-0.28575 0.12786,-0.42898 0.8314,-3.47652 1.91712,-6.80563 3.072,-10.18295 -4.58181,5.74996 -7.0348,12.51228 -9.49408,19.35774 -0.89428,2.48933 -1.67818,5.11209 -2.9148,7.45679 -2.01074,-7.5043 -0.11947,-19.28578 1.34073,-26.91374 0.71123,-3.71756 2.45019,-8.77376 1.64743,-12.44381 1.00398,-2.61159 2.21335,-5.09113 3.45627,-7.59582 -3.8063,4.21291 -7.56438,8.4887 -11.4601,12.61778 0.14532,-5.66124 2.19169,-11.21697 4.43299,-16.3598 4.7397,-10.69926 9.92538,-21.17798 15.55704,-31.43616 2.83445,-5.25251 5.58717,-10.61193 8.84641,-15.61642 9.83223,-15.09662 24.48031,-31.99089 38.27044,-43.65151 3.91948,-3.31444 8.93655,-8.12191 13.68953,-9.99292 3.24597,-3.82026 6.40949,-6.00637 11.00876,-7.95074 z"
       id="path45"
       style="stroke-width:0.698659"
       sodipodi:nodetypes="scccccccccscsccccssccccccccscssccccccccccccsccccccssccccccccccccccccccscccccccccccccccccccccccccccccccccccscccsccccccccscss" /><path
       fill="#030101"
       d="m 1034.0974,225.09668 c 0.6805,0.25711 1.1702,0.51631 1.6914,1.01865 0.8419,0.81184 1.4239,1.63765 1.426,2.84983 l -0.6763,0.58896 c -0.8594,-0.42268 -2.0247,-1.05357 -2.7052,-1.7159 -0.6749,-0.65674 -0.6596,-0.95297 -0.6833,-1.81582 z"
       id="path46"
       style="stroke-width:0.698659" /><path
       fill="#030101"
       d="m 1039.7083,233.29405 c 0.1216,0.0419 0.2459,0.0776 0.3647,0.12645 1.0137,0.4185 1.9807,1.13672 2.3412,2.21615 0.3291,0.98511 0.029,1.65163 -0.3521,2.53473 -0.1041,-0.0238 -0.211,-0.0391 -0.313,-0.072 -1.0243,-0.32697 -1.9695,-1.1444 -2.3992,-2.133 -0.4395,-1.01096 -0.02,-1.75923 0.3584,-2.67237 z"
       id="path47"
       style="stroke-width:0.698659" /><path
       fill="#030101"
       d="m 1038.3047,221.7005 c 1.4651,0.19493 2.5752,0.44435 3.5156,1.66979 0.9118,1.18772 0.946,2.54592 0.7993,3.96559 l -1.0249,-0.11667 c -1.3205,-1.667 -2.2658,-3.65958 -3.29,-5.51871 z"
       id="path48"
       style="stroke-width:0.698659" /><path
       fill="#030101"
       d="m 795.05261,534.02618 c 0.41011,0.40103 0.61551,0.77342 0.74407,1.34981 0.53517,2.3964 -1.6663,5.46072 -2.7646,7.46378 -0.34094,-0.473 -0.71612,-0.93481 -0.78459,-1.53775 -0.27457,-2.41107 1.48325,-5.38666 2.80512,-7.27584 z"
       id="path49"
       style="stroke-width:0.698659" /><path
       fill="#030101"
       d="m 800.59157,229.95865 c 0.84328,-0.1041 1.41758,-0.19423 2.25108,0.0412 l -0.003,0.48557 c -1.63766,1.76411 -4.2213,3.04126 -6.27186,4.3219 -0.59177,0.33955 -1.05218,0.28296 -1.7208,0.31579 l 0.22148,-0.54076 -0.31789,0.24453 c 0.037,-0.13204 0.0594,-0.26898 0.11038,-0.39544 0.88101,-2.17772 3.72456,-3.5408 5.7311,-4.47281 z"
       id="path50"
       style="stroke-width:0.698659" /><path
       fill="#030101"
       d="m 801.80514,536.45402 c 0.62251,0.67561 0.76154,0.76434 0.76224,1.73198 0.002,3.15165 -2.26156,6.60372 -4.45744,8.67804 l -0.36959,-0.21379 c -0.38636,-2.20776 2.87777,-8.14915 4.06479,-10.19623 z"
       id="path51"
       style="stroke-width:0.698659" /><path
       fill="#030101"
       d="m 989.20707,270.54025 1.0375,0.28156 c 0.7735,0.70355 1.2807,1.34073 1.5301,2.38243 0.4395,1.83118 0.075,3.27601 -0.918,4.82144 -0.2012,-0.0901 -0.415,-0.1565 -0.6051,-0.26898 -0.9578,-0.5722 -1.6132,-1.80953 -1.8437,-2.8645 -0.3745,-1.71172 -0.1146,-2.88756 0.7992,-4.35195 z"
       id="path52"
       style="stroke-width:0.698659" /><path
       fill="#030101"
       d="m 820.07997,698.31303 0.2585,0.28436 c -0.03,0.33116 -0.0203,0.47159 -0.18095,0.80974 -1.44693,3.05454 -6.33754,7.83476 -9.29426,9.33478 -0.51212,-0.62599 -0.43177,-0.54635 -0.52609,-1.26527 1.49792,-3.21732 6.78537,-6.1475 9.36342,-8.77376 z"
       id="path53"
       style="stroke-width:0.698659" /><path
       fill="#030101"
       d="m 678.51001,625.56657 c 2.95812,0.0391 8.55229,1.90105 11.07724,3.41155 l 0.0643,0.56312 c -3.02101,0.44435 -6.87481,0.44225 -9.49688,-1.29811 -1.11855,-0.74267 -1.34072,-1.40151 -1.64464,-2.67656 z"
       id="path54"
       style="stroke-width:0.698659" /><path
       fill="#030101"
       d="m 817.48654,690.70673 c 0.021,0.37658 -0.12366,0.79787 -0.27597,1.13113 -1.78856,3.92577 -6.05807,7.9179 -9.98802,9.49268 l -0.27597,-1.21357 c 1.09479,-2.71219 7.97309,-7.37085 10.53996,-9.41024 z"
       id="path55"
       style="stroke-width:0.698659" /><path
       fill="#030101"
       d="m 949.50237,348.27164 c 0.3172,1.07384 0.5826,2.1924 1.0647,3.20475 -2.6535,7.01104 -4.8703,14.2743 -7.2542,21.38316 0.5038,-6.85105 4.0697,-17.82279 6.1895,-24.58791 z"
       id="path56"
       style="stroke-width:0.698659" /><path
       fill="#030101"
       d="m 637.28564,618.2083 c 2.91271,0.7776 8.79821,4.7376 10.71953,7.11374 -0.10899,0.0252 -0.21799,0.0531 -0.32767,0.0769 -2.38732,0.524 -4.21012,0.20541 -6.26488,-1.16885 q -0.39125,-0.25781 -0.75525,-0.55194 -0.3647,-0.29414 -0.69866,-0.62181 -0.33396,-0.32837 -0.63508,-0.68678 -0.30042,-0.35911 -0.56521,-0.74547 -0.2648,-0.38636 -0.49116,-0.79647 -0.22567,-0.41012 -0.41151,-0.83979 -0.18515,-0.43037 -0.32837,-0.87612 -0.14253,-0.44574 -0.24174,-0.90336 z"
       id="path57"
       style="stroke-width:0.698659" /><path
       fill="#030101"
       d="m 640.82156,612.8419 c 3.99074,0.72101 9.87135,2.85192 12.38163,6.20129 -2.47325,0.64626 -4.75996,0.0447 -7.05646,-1.00397 -2.4488,-1.11855 -4.41552,-2.62556 -5.32517,-5.19732 z"
       id="path58"
       style="stroke-width:0.698659" /><path
       fill="#030101"
       d="m 804.76466,238.80367 0.21309,0.40662 c -3.19636,3.20615 -8.41185,5.77721 -12.25936,8.26583 l -0.42199,-0.40662 c -10e-4,-1.00327 0.11667,-1.55242 0.73079,-2.33701 2.78765,-3.56037 7.39042,-5.32797 11.73747,-5.92882 z"
       id="path59"
       style="stroke-width:0.698659" /><path
       fill="#030101"
       d="m 670.66547,629.88848 c 1.13951,0.0559 2.09807,0.31579 3.19077,0.63508 2.66609,0.779 9.69879,2.27623 10.95777,4.56154 -3.9579,0.23615 -8.4391,-0.0224 -11.85904,-2.24759 -1.27505,-0.83 -1.97091,-1.47277 -2.2895,-2.94903 z"
       id="path60"
       style="stroke-width:0.698659" /><path
       fill="#030101"
       d="m 981.11947,252.49808 c 0.364,0.11878 0.5868,0.17886 0.9452,0.35842 1.1836,0.59106 1.9255,1.77738 2.3133,3.00842 0.7203,2.28531 0.2403,4.60766 -0.9034,6.63936 -0.6274,-0.17956 -1.2715,-0.34025 -1.8053,-0.73849 -0.9753,-0.7273 -1.5692,-2.06733 -1.799,-3.23059 -0.4164,-2.10227 0.1222,-4.25693 1.2492,-6.03712 z"
       id="path61"
       style="stroke-width:0.698659" /><path
       fill="#030101"
       d="m 994.11237,251.98177 c 0.4604,0.17677 0.5387,0.18375 1.0026,0.48837 1.4867,0.97463 2.534,3.17331 2.7807,4.88292 0.2983,2.06664 0.082,3.38151 -1.2101,5.01707 -0.3375,-0.003 -0.6798,0.0126 -1.0103,-0.081 -0.953,-0.26898 -1.6006,-1.4588 -1.9185,-2.32164 -0.9208,-2.5005 -0.6665,-5.57251 0.3556,-7.98568 z"
       id="path62"
       style="stroke-width:0.698659" /><path
       fill="#030101"
       d="m 807.37904,499.83242 c 0.10131,0.415 0.13345,0.49046 0.17327,0.97952 0.50583,6.1978 -2.53054,11.90445 -6.3571,16.50791 -0.13693,-0.26828 -0.19841,-0.34793 -0.24942,-0.68468 -0.50163,-3.32841 4.54688,-13.66437 6.43325,-16.80275 z"
       id="path63"
       style="stroke-width:0.698659" /><path
       fill="#030101"
       d="m 802.48704,489.93731 c 1.16256,2.91341 -2.0855,12.41867 -3.3368,15.32928 -1.00327,2.33492 -2.1372,4.637 -3.98096,6.42836 l -0.66303,0.21868 c -0.92851,-2.47186 3.97607,-11.99108 4.80538,-15.23635 1.00537,-2.27903 2.0296,-4.52801 3.17541,-6.73997 z"
       id="path64"
       style="stroke-width:0.698659" /><path
       fill="#030101"
       d="m 629.15535,490.06657 c 1.04869,24.51384 0.90406,48.27104 -11.95755,70.03776 l -0.26758,-0.11319 c 1.13043,-2.92947 2.56198,-5.73319 3.67983,-8.66896 q 1.15419,-3.05313 2.12253,-6.16985 0.96904,-3.11672 1.75014,-6.28654 0.7804,-3.16911 1.37007,-6.37945 0.58967,-3.21034 0.98581,-6.45002 c 0.71123,-5.65844 0.92572,-11.48036 1.04519,-17.18142 0.12087,-5.73808 -0.92013,-13.43102 1.27156,-18.78833 z"
       id="path65"
       style="stroke-width:0.698659" /><path
       fill="#030101"
       d="m 618.48753,466.48264 c 0.50583,0.12506 0.99069,0.20051 1.44832,0.45692 -4.07249,4.07108 -7.85503,8.22042 -10.9941,13.08029 -9.10562,14.09754 -12.39281,32.29132 -12.39211,48.91591 6.9e-4,5.2581 0.42548,11.03531 1.67189,16.15928 l -0.0685,-0.49535 -0.0762,0.45273 c -0.4646,-1.40151 -1.12344,-2.7604 -1.47766,-4.18846 -0.80555,-3.24946 -0.94738,-6.84686 -1.10528,-10.17736 -0.74547,-15.75476 2.14349,-31.80925 9.2244,-45.95429 q 2.05964,-4.15633 4.68241,-7.98218 c 2.63045,-3.81049 5.66193,-7.16126 9.08676,-10.26749 z"
       id="path66"
       style="stroke-width:0.698659" /><path
       fill="url(#gradient_1)"
       d="m 977.57797,303.51416 c -12.0743,14.09055 -20.0313,30.89609 -27.0109,47.96223 -0.4821,-1.01235 -0.7475,-2.13091 -1.0647,-3.20475 4.9465,-16.18722 14.581,-34.19516 28.0756,-44.75748 z"
       id="path67"
       style="fill:url(#gradient_1);stroke-width:0.698659" /><path
       fill="#030101"
       d="m 634.8068,460.20519 0.5219,1.15139 c -2.09738,4.25133 -4.06969,8.78074 -5.36081,13.34997 -1.55172,2.75551 -2.53264,6.41299 -3.55059,9.42072 q -3.93764,11.74515 -6.34102,23.89762 c -2.51098,12.4515 -4.16261,32.83977 -10.87463,43.2414 4.49308,-13.68603 6.16217,-27.34062 8.93585,-41.39763 q 1.18143,-6.15868 2.73874,-12.23282 1.55661,-6.07484 3.48351,-12.04209 1.92621,-5.96794 4.21501,-11.80594 2.28951,-5.83799 4.93184,-11.52507 z"
       id="path68"
       style="stroke-width:0.698659" /><path
       fill="#030101"
       d="m 788.63682,725.7319 c -15.03165,16.61201 -48.81879,31.54236 -71.25482,32.73916 -2.51657,0.13414 -5.34544,0.23684 -7.8159,-0.32907 l -0.2075,-0.7804 0.17396,-0.22357 1.94367,-0.4178 c 18.11763,0.2592 42.39532,-8.68922 58.01524,-18.01772 6.64145,-3.96558 12.68415,-8.7479 19.14535,-12.9706 z"
       id="path69"
       style="stroke-width:0.698659" /><path
       fill="url(#gradient_2)"
       d="m 990.89857,228.0562 c 0.8663,-4.67892 5.0709,-8.07859 8.8038,-10.66643 4.75513,-3.29767 13.90123,-8.3853 19.86713,-7.21435 1.618,0.31789 3.0531,1.19471 3.9383,2.6053 1.6181,2.57875 1.2862,5.80865 0.5128,8.60748 q -0.1209,0.43876 -0.2634,0.87053 -0.1425,0.43177 -0.3067,0.85586 -0.1642,0.42478 -0.3486,0.84048 -0.1852,0.41501 -0.3906,0.82093 -0.2054,0.40592 -0.4304,0.80136 -0.2256,0.39544 -0.4702,0.7783 -0.2445,0.38357 -0.5086,0.75456 -0.2634,0.37098 -0.5449,0.728 -0.2816,0.35701 -0.5806,0.70005 -0.299,0.34235 -0.6148,0.67002 -0.3158,0.32697 -0.6477,0.63857 -0.3319,0.31091 -0.6784,0.60574 -0.3472,0.29414 -0.7077,0.5708 -0.3612,0.27667 -0.7357,0.53518 -0.3745,0.2585 -0.7609,0.49814 -0.387,0.23894 -0.7853,0.45902 c -5.2546,2.88057 -12.1021,3.32981 -17.80533,1.62788 -2.8456,-0.84888 -5.0359,-2.2923 -6.4283,-4.94651 2.4061,-0.6756 6.6233,1.14301 9.23903,1.45601 2.4963,0.29832 5.0974,0.2068 7.5784,-0.18235 4.8976,-0.76923 9.2097,-3.19218 12.0274,-7.36177 1.31,-1.93948 2.344,-4.95769 1.8431,-7.31007 -0.2746,-1.28833 -0.9733,-2.32584 -2.1393,-2.9679 -4.774,-2.62836 -18.117,5.95187 -21.73883,8.94213 -1.7411,1.43714 -5.1917,5.69337 -6.9237,6.28304 z"
       id="path70"
       style="fill:url(#gradient_2);stroke-width:0.698659" /><path
       fill="url(#gradient_3)"
       d="m 962.14107,283.35156 c 0.1593,0.0915 0.045,0.0119 0.1998,0.3654 -25.1755,23.01801 -47.7114,49.25475 -62.1827,80.37232 l -0.3046,-0.15231 c 1.2457,-4.08086 3.3095,-8.17151 5.0548,-12.07701 12.0833,-27.03601 32.1725,-52.43156 57.2327,-68.5084 z"
       id="path72"
       style="fill:url(#gradient_3);stroke-width:0.698659" /><path
       fill="#604a47"
       d="m 990.89857,228.0562 c 1.732,-0.58967 5.1826,-4.8459 6.9237,-6.28304 3.62183,-2.99026 16.96483,-11.57049 21.73883,-8.94213 1.166,0.64206 1.8647,1.67957 2.1393,2.9679 0.5009,2.35238 -0.5331,5.37059 -1.8431,7.31007 -2.8177,4.16959 -7.1298,6.59254 -12.0274,7.36177 -2.481,0.38915 -5.0821,0.48067 -7.5784,0.18235 -2.61573,-0.313 -6.83293,-2.13161 -9.23903,-1.45601 z"
       id="path73"
       style="stroke-width:0.698659" /><path
       fill="#fefefe"
       d="m 834.31933,622.29824 c 0.51631,1.69006 -0.47019,3.2348 -1.27365,4.73342 -9.37181,17.47905 -24.72275,37.99307 -38.33681,52.50142 -7.69364,8.19946 -15.57171,15.9965 -23.98496,23.46236 -10.00131,8.87647 -57.04201,45.30873 -59.24768,53.72478 l -1.94367,0.4178 c 0.0769,-2.01703 2.23152,-4.85009 3.3892,-6.46819 13.87536,-19.39547 35.86635,-32.44572 54.00284,-47.4592 q 12.74633,-10.49944 24.24206,-22.35569 6.32357,-6.57438 12.20348,-13.54769 5.87991,-6.97332 11.29173,-14.31692 5.41111,-7.3429 10.33106,-15.02396 4.91926,-7.68176 9.3264,-15.66813 z"
       id="path74"
       style="stroke-width:0.698659" /><path
       fill="#030101"
       d="m 493.89065,534.42652 c 18.40904,-8.91699 39.71541,-10.65874 59.13673,-3.88245 4.72084,1.64744 9.14125,3.91808 13.57704,6.1985 4.87664,3.19287 9.98174,6.79306 14.14924,10.88301 -4.35544,-1.96463 -10.44775,-7.09698 -15.38797,-9.66874 -20.05151,-10.43587 -40.54317,-13.17252 -62.35509,-6.04969 -3.00983,0.98302 -10.93171,3.34798 -12.32162,6.09161 0.60839,0.86494 3.08821,1.48884 4.14877,1.93948 3.85164,1.63695 7.521,3.82585 11.18882,5.8352 0.91119,-0.0433 1.82762,-0.0489 2.73965,-0.0594 26.66613,-0.30322 54.93178,4.72643 74.69264,24.08766 -5.99379,-3.50168 -11.49783,-7.52246 -17.70471,-10.73 -18.01841,-9.31243 -39.16472,-11.79825 -59.22469,-12.77149 6.93727,4.73062 12.98046,10.24514 19.40951,15.59477 17.9255,14.91357 30.93033,13.91589 52.78229,11.94777 -5.9414,2.20007 -12.58634,2.99095 -18.89314,3.00423 -28.33411,0.0608 -38.68202,-20.86265 -60.19519,-33.40847 -3.53018,-2.05895 -7.17928,-3.494 -11.02204,-4.83612 l 1.10458,-1.33025 c 1.3482,-0.99978 2.7838,-1.90594 4.17518,-2.84563 z"
       id="path75"
       style="stroke-width:0.698659" /><path
       fill="#2c1e1c"
       d="m 846.40473,180.3867 c 2.73246,-0.21798 7.32195,-0.84677 9.50246,1.31278 0.98581,0.97603 1.26597,2.03101 1.16886,3.36964 -0.1572,2.15187 -1.18772,4.12837 -2.40967,5.86104 -3.52753,5.001 -8.94144,8.55508 -12.768,13.38282 -2.03728,2.57036 -8.10514,13.15435 -9.03156,13.97038 -0.39265,0.34584 -0.63159,0.23684 -1.11785,0.24243 -1.62858,-1.43364 -1.71731,-5.52779 -1.84726,-7.59931 -0.15789,-2.52845 -0.0908,-5.03523 0.0797,-7.56089 0.34094,-5.0492 3.10484,-10.60494 5.41461,-15.02815 3.24597,-3.82026 6.40949,-6.00637 11.00876,-7.95074 z"
       id="path76"
       style="stroke-width:0.698659" /><path
       fill="#604a47"
       d="m 847.90406,182.81105 c 1.42247,-0.13065 3.25295,-0.0873 4.56084,0.54286 0.89568,0.43107 1.10109,0.81883 1.41618,1.72149 -0.90266,4.85778 -9.62822,11.47268 -12.83157,15.59896 -2.42644,3.1251 -4.43089,6.73857 -6.23553,10.24933 -0.74966,1.31557 -1.3016,2.76808 -1.90314,4.15702 l -0.4164,0.0454 c -1.65583,-5.86105 0.90755,-16.44783 3.41644,-21.91903 2.55569,-5.5718 6.36897,-8.33919 11.99318,-10.39604 z"
       id="path77"
       style="stroke-width:0.698659" /><path
       fill="#2c1e1c"
       d="m 1024.168,240.98279 c 0.4262,0.4129 0.6302,0.63089 0.9125,1.13392 4.7886,8.52783 3.9516,24.37551 4.9772,34.20983 0.8475,8.12541 2.3559,16.20959 2.4446,24.39787 0.046,4.25204 -0.1865,8.69481 -1.419,12.79035 -1.4867,4.94231 -4.5706,9.76865 -9.2705,12.16784 -4.4546,2.27414 -10.375,2.41946 -15.0498,0.72032 -6.4032,-2.32723 -10.14453,-8.03807 -12.82873,-13.962 -1.1975,-3.15584 -2.0653,-6.10977 -2.2742,-9.49407 -1.6453,-0.0294 -3.3116,-0.0915 -4.9339,-0.38287 -2.9295,-0.52609 -9.5549,-2.59971 -11.0046,-5.48936 -0.422,-0.84119 -0.2704,-1.26877 -0.024,-2.09388 l 0.6015,0.0468 q 0.6574,0.49046 1.3498,0.93061 0.6931,0.44016 1.4162,0.82721 0.7238,0.38636 1.4742,0.71822 0.7503,0.33117 1.5237,0.60504 0.7735,0.27458 1.565,0.48976 0.7916,0.21519 1.5972,0.37099 0.8062,0.1551 1.6209,0.24942 0.8153,0.095 1.6348,0.12786 c 7.5134,0.32557 15.92743,-3.9635 21.31963,-8.99454 13.9033,-12.9734 13.7077,-31.84557 14.3672,-49.36933 z"
       id="path78"
       style="stroke-width:0.698659" /><path
       fill="#f7a0a0"
       d="m 1010.6867,308.25875 c 7.2633,-0.58128 11.9366,1.98419 17.667,6.07763 -0.4877,1.24571 -1.0305,2.50539 -1.6964,3.66587 -2.4557,4.28138 -5.9889,6.11187 -10.5916,7.28631 -2.5208,0.0887 -4.7795,0.0727 -7.2221,-0.70215 -5.2706,-1.67189 -8.699,-5.6277 -11.16103,-10.35902 4.30723,-2.97908 7.74183,-5.12117 13.00413,-5.96864 z"
       id="path79"
       style="stroke-width:0.698659" /><path
       fill="#8c7b78"
       d="m 1027.0549,260.90365 c 0.7985,5.19034 0.2662,10.33875 0.5666,15.54726 0.7378,12.78056 2.9791,22.01404 1.2883,35.27459 -3.1705,-2.47745 -6.6079,-4.47212 -10.5427,-5.45583 -6.6415,-1.66141 -12.6604,0.2599 -18.3356,3.68542 l -3.34523,2.52985 c -1.66,-3.31165 -2.4998,-6.39902 -3.1733,-10.03903 3.6784,-0.82861 7.12143,-1.77879 10.48193,-3.52613 10.1047,-5.25392 17.3443,-15.60315 20.3569,-26.45472 1.0277,-3.7022 1.3966,-7.6077 2.5983,-11.2554 0.034,-0.1027 0.07,-0.20401 0.1048,-0.30601 z"
       id="path80"
       style="stroke-width:0.698659" /><path
       fill="#fefefe"
       d="m 768.95211,323.09826 c 2.45648,3.53871 3.39199,8.61726 5.20291,12.58704 3.0189,6.617 6.88878,13.20047 10.91724,19.25085 4.4281,6.65123 9.70927,13.14527 15.04143,19.09575 2.8638,3.19566 5.96515,6.22295 8.67106,9.55206 14.09404,17.34002 14.90449,39.60907 11.07723,60.66316 -1.99746,10.98641 -10.41141,37.16795 -17.37494,45.69019 -1.14581,2.21196 -2.17004,4.46094 -3.17541,6.73997 -0.14113,0.11038 -0.28575,0.21728 -0.42339,0.33186 -0.32767,0.27387 -4.9493,8.29797 -6.45071,10.17457 -3.65329,4.56643 -7.0879,9.15313 -10.21859,14.09544 -2.57665,4.06829 -4.81306,8.30566 -7.49591,12.33343 q -13.62664,20.51891 -28.38512,40.23996 c -6.05318,8.20295 -12.05885,16.78598 -19.89221,23.41206 -11.53975,9.76096 -25.80008,16.06706 -41.08953,15.40892 -7.18082,-0.30951 -13.53093,-2.19728 -20.30512,-4.41063 -17.84864,-5.83171 -36.93041,-15.07078 -49.76757,-29.18159 -1.4623,-1.60761 -2.77019,-3.27182 -3.51985,-5.33426 0.0335,-0.46251 0.0377,-0.67211 0.25851,-1.09061 2.34609,2.80861 5.53477,5.12327 8.47613,7.26606 13.90331,10.12776 30.21001,17.34909 46.80106,21.78698 16.33534,4.37011 33.88985,4.84869 48.90054,-3.9097 27.01155,-15.76035 64.90471,-74.67546 79.63244,-102.88661 7.94515,-15.21819 15.16439,-31.08752 19.56594,-47.72539 12.11964,-45.80617 -16.36329,-58.243 -35.7902,-92.00849 -4.01309,-6.97541 -12.87488,-24.21831 -10.7838,-31.65204 0.0405,-0.14322 0.0852,-0.28575 0.12786,-0.42898 z"
       id="path81"
       style="stroke-width:0.698659" /><path
       fill="#2c1e1c"
       d="m 876.28917,200.35787 c 1.16746,-0.11668 2.3978,-0.12506 3.57015,-0.1048 15.18465,0.25641 31.12175,10.39674 41.19785,21.1512 13.1201,14.00392 20.7851,30.33786 20.1912,49.66696 5.0981,-2.19798 10.3465,-3.52753 15.6968,-4.96397 -5.1394,3.13977 -10.6678,5.58857 -16.1411,8.07929 -1.236,9.35295 -5.1492,18.07221 -11.6348,24.96308 -7.9864,8.48522 -18.3789,12.6639 -29.9299,12.99646 -5.1714,0.003 -9.49193,-0.62181 -14.43494,-2.19868 -2.23641,1.75014 -12.14759,13.0251 -13.46735,13.17531 l 0.0279,-0.0412 -0.17396,0.48696 c 2.4467,-5.02545 7.90043,-10.22767 11.78777,-14.28408 -4.52591,-2.07152 -8.82476,-4.29116 -12.72048,-7.42535 -15.02816,-12.08749 -26.40302,-33.77107 -28.48153,-52.88568 -1.31977,-12.13501 1.1996,-25.23766 9.01829,-34.87496 6.69525,-8.25326 14.98204,-12.67996 25.49406,-13.74052 z"
       id="path82"
       style="stroke-width:0.698659" /><path
       fill="#604a47"
       d="m 870.06971,206.19866 0.1565,0.17955 c -0.71613,1.54823 -7.01524,5.36989 -8.76677,7.05716 -9.92655,9.56324 -15.07357,24.3252 -15.29993,37.93997 -0.0377,-0.0845 -0.0803,-0.16768 -0.11319,-0.25431 -2.75341,-7.30099 -0.0852,-20.65166 3.25715,-27.51878 4.05222,-8.32732 12.13012,-14.43849 20.76624,-17.40359 z"
       id="path83"
       style="stroke-width:0.698659" /><path
       fill="#fefefe"
       d="m 894.21747,220.87399 c 1.7096,-0.2606 3.2299,-0.0783 4.8997,0.34653 4.9654,1.26178 9.5639,4.45605 12.0484,8.97567 1.5112,2.74923 2.7184,6.42138 1.7019,9.53949 -0.7909,2.42644 -2.4216,3.89852 -4.6405,4.99751 -1.3114,0.28994 -2.6563,0.50583 -4.0005,0.36889 -4.3296,-0.44225 -8.3273,-3.21243 -10.9215,-6.6149 -2.37959,-3.12161 -4.05009,-7.47216 -3.35213,-11.43845 0.50164,-2.85332 1.93953,-4.56713 4.26463,-6.17474 z"
       id="path84"
       style="stroke-width:0.698659" /><path
       fill="#fefefe"
       d="m 936.71757,275.6698 0.5547,0.0992 c 0.1503,0.59247 0.2075,0.50863 0.1237,0.99769 -1.6495,9.62542 -9.2852,19.59529 -17.0906,25.14194 -9.1119,6.47517 -20.0801,8.36714 -30.98481,6.52058 l -1.41129,-0.35212 c 0.0789,-0.19213 0.13274,-0.39614 0.23614,-0.5757 0.74687,-1.29321 3.44296,-3.05034 4.65866,-4.07108 12.7596,-10.71254 28.4319,-21.58926 43.9135,-27.76052 z"
       id="path85"
       style="stroke-width:0.698659" /><path
       fill="#604a47"
       d="m 888.65124,220.19908 c 0.83979,-0.0859 1.55941,-0.17816 2.39291,0.0294 0.0203,1.39661 -1.91712,3.25365 -2.64932,4.49796 -1.31138,2.22663 -0.73778,6.05668 0,8.3895 1.62718,5.14213 5.52924,9.46054 10.26054,11.97501 3.058,1.62508 6.7853,2.61578 10.1815,1.48465 2.0708,-0.68957 3.7721,-2.11554 4.6971,-4.10532 2.1197,-4.56084 0.091,-9.77354 -1.6013,-14.10592 2.0058,1.81651 3.6728,3.72804 5.2371,5.9386 7.4876,10.58328 11.7878,23.05155 9.5346,36.01377 q -0.2606,0.90546 -0.5393,1.80533 c -1.2157,3.9083 -2.5278,6.95166 -6.3271,8.94633 -8.2581,0.1048 -14.9122,-0.28645 -22.2935,-4.26461 -10.33037,-5.56831 -18.83025,-16.33185 -22.10487,-27.59144 -1.90175,-6.53665 -2.04497,-14.35604 1.4616,-20.39385 2.59971,-4.47561 6.80773,-7.34431 11.75004,-8.61936 z"
       id="path86"
       style="stroke-width:0.698659" /><path
       fill="#fefefe"
       d="m 881.74709,207.35284 c 13.98158,0.33536 26.41418,6.81961 36.12698,16.69725 13.2843,13.50997 20.6216,28.93705 20.4099,48.01254 -3.9369,1.31907 -7.6182,3.1754 -11.3448,4.98353 3.6086,-8.66337 3.596,-16.65533 1.129,-25.66174 -3.2781,-11.96663 -10.9424,-23.55528 -21.9162,-29.71396 -5.7465,-3.22571 -12.7666,-5.32937 -19.2872,-3.334 -5.08833,1.55731 -9.29775,5.31749 -11.77799,9.98663 -4.05502,7.63355 -3.1258,16.42617 -0.68539,24.39158 q 0.80416,2.31675 1.83678,4.54058 1.03332,2.22383 2.28461,4.33239 1.2513,2.10855 2.7087,4.08016 1.45741,1.97232 3.10624,3.78743 c 9.01065,9.9014 17.82625,13.61687 30.90655,14.17859 -12.1937,8.25116 -19.7573,13.45268 -30.39932,23.964 -4.93184,-2.17912 -9.62123,-4.85848 -13.77616,-8.31474 -13.29408,-11.06047 -20.79069,-26.28634 -22.19499,-43.3972 -1.0424,-12.69952 2.54451,-27.54602 10.94868,-37.37406 5.81494,-6.80075 13.06422,-10.48338 21.92461,-11.15898 z"
       id="path87"
       style="stroke-width:0.698659" /></g><g
     style="fill:none"
     id="g115"
     transform="matrix(6.5999593,-1.6364877,2.4559611,6.2504965,904.1992,446.38518)"><path
       d="M 6.98218,5.26397 C 8.07121,4.95349 9.32696,2.91791 8.80335,1.70633 8.11779,0.119996 5.6994,0.105616 4.34844,0.592045 2.60506,1.21977 0.766174,3.03956 1.29509,4.99396 1.91164,7.27214 4.77639,8.01583 5.04812,9.99454 5.15125,10.7455 5.24898,11.4231 4.42124,11.6545 4.0047,11.771 3.49766,11.2424 3.22479,10.5853 2.89772,9.79764 2.81121,8.83484 2.32914,8.70587 1.88797,8.58784 0.579257,9.33139 0.366026,9.55053 -0.610706,10.5544 0.741856,11.7298 1.38291,12.2936 2.72177,13.4713 5.32288,13.6082 6.62435,12.3893 7.91078,11.1846 8.49996,9.76611 8.13257,8.04235 7.75462,6.26911 4.95232,5.13261 4.98855,3.56861 5.00054,3.05128 5.25653,1.76741 5.76631,1.78881 c 0.45991,0.01931 0.88964,1.3022 0.91783,2.23546 0.0226,0.74851 -0.27036,1.40175 0.29804,1.2397 z"
       fill="#ffffff"
       id="path1" /></g></svg>
