<?xml version="1.0" encoding="UTF-8" standalone="no"?>
<svg
   width="200"
   height="200"
   version="1.1"
   id="svg87"
   sodipodi:docname="1.svg"
   inkscape:version="1.4 (86a8ad7, 2024-10-11)"
   xmlns:inkscape="http://www.inkscape.org/namespaces/inkscape"
   xmlns:sodipodi="http://sodipodi.sourceforge.net/DTD/sodipodi-0.dtd"
   xmlns="http://www.w3.org/2000/svg"
   xmlns:svg="http://www.w3.org/2000/svg">
  <sodipodi:namedview
     id="namedview87"
     pagecolor="#ffffff"
     bordercolor="#000000"
     borderopacity="0.25"
     inkscape:showpageshadow="2"
     inkscape:pageopacity="0.0"
     inkscape:pagecheckerboard="0"
     inkscape:deskcolor="#d1d1d1"
     inkscape:zoom="1.5097656"
     inkscape:cx="72.858992"
     inkscape:cy="70.540751"
     inkscape:window-width="1920"
     inkscape:window-height="991"
     inkscape:window-x="-9"
     inkscape:window-y="-9"
     inkscape:window-maximized="1"
     inkscape:current-layer="svg87" />
  <defs
     id="defs37">
    <linearGradient
       id="gradient_0"
       gradientUnits="userSpaceOnUse"
       x1="739.12897"
       y1="136.68178"
       x2="743.89288"
       y2="118.3054"
       gradientTransform="matrix(0.69865891,0,0,0.69865891,452.28286,102.75173)">
      <stop
         offset="0"
         stop-color="#110B0A"
         id="stop36" />
      <stop
         offset="1"
         stop-color="#2C1A17"
         id="stop37" />
    </linearGradient>
  </defs>
  <defs
     id="defs67">
    <linearGradient
       id="gradient_1"
       gradientUnits="userSpaceOnUse"
       x1="726.9071"
       y1="328.62439"
       x2="722.15552"
       y2="326.51587"
       gradientTransform="matrix(0.69865891,0,0,0.69865891,452.28286,102.75173)">
      <stop
         offset="0"
         stop-color="#090504"
         id="stop66" />
      <stop
         offset="1"
         stop-color="#21110F"
         id="stop67" />
    </linearGradient>
  </defs>
  <defs
     id="defs70">
    <linearGradient
       id="gradient_2"
       gradientUnits="userSpaceOnUse"
       x1="791.77368"
       y1="158.23056"
       x2="799.45844"
       y2="187.01111"
       gradientTransform="matrix(0.69865891,0,0,0.69865891,452.28286,102.75173)">
      <stop
         offset="0"
         stop-color="#040000"
         id="stop69" />
      <stop
         offset="1"
         stop-color="#221313"
         id="stop70" />
    </linearGradient>
  </defs>
  <defs
     id="defs72">
    <linearGradient
       id="gradient_3"
       gradientUnits="userSpaceOnUse"
       x1="687.62524"
       y1="310.17313"
       x2="680.60168"
       y2="304.02301"
       gradientTransform="matrix(0.69865891,0,0,0.69865891,452.28286,102.75173)">
      <stop
         offset="0"
         stop-color="black"
         id="stop71" />
      <stop
         offset="1"
         stop-color="#271614"
         id="stop72" />
    </linearGradient>
  </defs>
  <path
     style="fill:#ffffff;stroke:#000000;stroke-width:2.51736;stroke-linecap:round;stroke-miterlimit:23.6;stroke-dasharray:none;stroke-opacity:1"
     d="m 45.735798,159.54131 c 0,0 30.233585,-23.00214 46.913969,-34.82992 17.439373,-12.36597 48.365153,-38.550368 48.365153,-38.550368 0,0 -29.87299,-57.89923 -85.29018,-20.74626 -58.4381611,39.178298 -9.988942,94.126548 -9.988942,94.126548 z"
     id="path92"
     sodipodi:nodetypes="cscsc" />
  <path
     style="fill:#ffffff;stroke:#000000;stroke-width:2.51736;stroke-linecap:round;stroke-miterlimit:23.6;stroke-dasharray:none;stroke-opacity:1"
     d="m 53.035411,67.911992 c 0,0 0.95608,25.23933 4.123447,36.418288 3.36386,11.87245 15.470244,32.73592 15.470244,32.73592"
     id="path93"
     sodipodi:nodetypes="csc" />
  <path
     style="fill:#ffffff;stroke:#000000;stroke-width:2.51736;stroke-linecap:round;stroke-miterlimit:23.6;stroke-dasharray:none;stroke-opacity:1"
     d="m 64.369017,60.804472 c 0,0 17.489405,11.27117 25.358333,18.0266 9.281808,7.96838 25.54684,26.347358 25.54684,26.347358"
     id="path94"
     sodipodi:nodetypes="csc" />
  <path
     style="fill:#ffff00;stroke:none;stroke-width:1.66761;stroke-linecap:round;stroke-miterlimit:23.6;stroke-dasharray:none;stroke-opacity:1"
     d="M 42.275722,153.51704 C 34.528953,142.54771 29.610455,129.26281 28.11708,117.97003 25.867355,100.95782 33.630313,85.170792 48.130503,72.570292 c 1.823711,-1.58478 3.665839,-3.23907 3.844589,-3.30267 0.178744,-0.0636 0.23615,1.88444 0.376589,3.95543 0.924578,13.63426 2.333291,24.816165 3.789833,30.082458 1.762349,6.37197 6.147596,15.95501 12.31547,27.32502 1.920995,3.54121 3.763534,7.4041 3.793487,7.49831 0.07601,0.23905 -26.231487,19.87571 -26.626139,19.87571 -0.176534,0 -1.968256,-2.53294 -3.34861,-4.48751 z"
     id="path95"
     sodipodi:nodetypes="ssssssssss" />
  <path
     style="fill:#ff0000;stroke:none;stroke-width:1.10455;stroke-linecap:round;stroke-miterlimit:23.6;stroke-dasharray:none;stroke-opacity:1"
     d="M 109.64552,97.493042 C 95.517359,81.990442 87.954659,75.748132 72.879782,65.443292 l -7.055406,-4.82291 3.250556,-1.465154 c 8.479448,-3.82202 18.740484,-6.08575 26.709436,-5.275146 5.830742,0.593106 11.868742,2.364451 17.568872,5.179393 7.42336,3.665937 13.81717,8.556967 19.55938,15.436477 2.98897,3.58095 6.73633,10.72712 6.73633,11.3934 0,0.18333 -1.05105,0.88738 -3.20482,2.66972 -11.4151,9.44652 -18.5822,16.331058 -20.20143,15.945528 -0.59031,-0.0486 -3.13163,-3.20885 -6.59718,-7.011558 z"
     id="path96"
     sodipodi:nodetypes="sscsssssscs" />
  <path
     style="fill:#0000ff;stroke:#000000;stroke-width:1.66761;stroke-linecap:round;stroke-miterlimit:23.6;stroke-dasharray:none;stroke-opacity:1"
     d="m 101.05916,117.6646 c 0,0 99.68127,-47.826528 84.0124,-53.918438 -13.45006,-5.229247 -48.98619,13.46696 -48.98619,13.46696 l 5.00487,8.73104 z"
     id="path97"
     sodipodi:nodetypes="csccc" />
</svg>
