<svg width="23" height="12" viewBox="0 0 23 12" fill="none" xmlns="http://www.w3.org/2000/svg">
<path d="M22.6603 4.47541H21.3129V2.82295C21.3125 2.41875 21.1539 2.03124 20.8719 1.74542C20.5899 1.45961 20.2075 1.29883 19.8087 1.29836H18.9652C18.9116 0.937684 18.7323 0.608407 18.4597 0.370215C18.1872 0.132024 17.8395 0.000682468 17.4796 5.62767e-08H16.3151C16.2704 -2.58039e-05 16.2263 0.00886098 16.185 0.0261526C16.1438 0.0434443 16.1064 0.0688012 16.0748 0.100774C16.0433 0.132747 16.0183 0.170708 16.0012 0.212488C15.9841 0.254267 15.9754 0.299046 15.9754 0.344262V4.47541H7.02461V0.344262C7.02463 0.299046 7.01586 0.254267 6.9988 0.212488C6.98174 0.170708 6.95673 0.132747 6.92518 0.100774C6.89363 0.0688012 6.85618 0.0434443 6.81496 0.0261526C6.77374 0.00886098 6.72956 -2.58039e-05 6.68495 5.62767e-08H5.52039C5.16052 0.000682468 4.8128 0.132024 4.54026 0.370215C4.26772 0.608407 4.0884 0.937684 4.0348 1.29836H3.19127C2.79247 1.29883 2.41014 1.45961 2.12814 1.74542C1.84615 2.03124 1.68752 2.41875 1.68705 2.82295V4.47541H0.339662C0.29505 4.47538 0.25087 4.48427 0.209649 4.50156C0.168428 4.51885 0.130974 4.54421 0.099428 4.57618C0.0678823 4.60816 0.042864 4.64612 0.0258034 4.6879C0.00874277 4.72968 -2.54591e-05 4.77446 5.55236e-08 4.81967V7.18033C-2.54591e-05 7.22554 0.00874277 7.27032 0.0258034 7.3121C0.042864 7.35388 0.0678823 7.39184 0.099428 7.42382C0.130974 7.45579 0.168428 7.48115 0.209649 7.49844C0.25087 7.51573 0.29505 7.52462 0.339662 7.52459H1.68705V9.17705C1.68752 9.58125 1.84615 9.96877 2.12814 10.2546C2.41014 10.5404 2.79247 10.7012 3.19127 10.7016H4.0348C4.0884 11.0623 4.26772 11.3916 4.54026 11.6298C4.8128 11.868 5.16052 11.9993 5.52039 12H6.68495C6.72956 12 6.77374 11.9911 6.81496 11.9738C6.85618 11.9566 6.89363 11.9312 6.92518 11.8992C6.95673 11.8673 6.98174 11.8293 6.9988 11.7875C7.01586 11.7457 7.02463 11.701 7.02461 11.6557V7.52459H15.9754V11.6557C15.9754 11.701 15.9841 11.7457 16.0012 11.7875C16.0183 11.8293 16.0433 11.8673 16.0748 11.8992C16.1064 11.9312 16.1438 11.9566 16.185 11.9738C16.2263 11.9911 16.2704 12 16.3151 12H17.4796C17.8395 11.9993 18.1872 11.868 18.4597 11.6298C18.7323 11.3916 18.9116 11.0623 18.9652 10.7016H19.8087C20.2075 10.7012 20.5899 10.5404 20.8719 10.2546C21.1539 9.96877 21.3125 9.58125 21.3129 9.17705V7.52459H22.6603C22.705 7.52462 22.7491 7.51573 22.7904 7.49844C22.8316 7.48115 22.869 7.45579 22.9006 7.42382C22.9321 7.39184 22.9571 7.35388 22.9742 7.3121C22.9913 7.27032 23 7.22554 23 7.18033V4.81967C23 4.77446 22.9913 4.72968 22.9742 4.6879C22.9571 4.64612 22.9321 4.60816 22.9006 4.57618C22.869 4.54421 22.8316 4.51885 22.7904 4.50156C22.7491 4.48427 22.705 4.47538 22.6603 4.47541ZM0.679325 6.83607V5.16393H1.68705V6.83607H0.679325ZM2.36638 9.17705V2.82295C2.36664 2.60129 2.45363 2.38879 2.60827 2.23205C2.76291 2.07531 2.97258 1.98715 3.19127 1.98688H4.01617V10.0131H3.19127C2.97261 10.0129 2.76297 9.92471 2.60834 9.76802C2.4537 9.61133 2.36669 9.39887 2.36638 9.17725V9.17705ZM5.52039 11.3115C5.30169 11.3112 5.09203 11.223 4.93738 11.0663C4.78274 10.9096 4.69575 10.6971 4.69549 10.4754V1.52459C4.69575 1.30293 4.78274 1.09043 4.93738 0.93369C5.09203 0.776954 5.30169 0.688785 5.52039 0.688525H6.34528V4.81593V4.81967V4.82341V7.17659V7.18033V7.18407V11.3115H5.52039ZM7.02461 6.83607V5.16393H15.9754V6.83607H7.02461ZM18.3045 10.4754C18.3042 10.6971 18.2173 10.9096 18.0626 11.0663C17.908 11.223 17.6983 11.3112 17.4796 11.3115H16.6547V7.18407V7.18033V7.17659V4.82341V4.81967V4.81593V0.688525H17.4796C17.6983 0.688785 17.908 0.776954 18.0626 0.93369C18.2173 1.09043 18.3042 1.30293 18.3045 1.52459V10.4754ZM20.6336 9.17705C20.6334 9.39871 20.5464 9.61121 20.3917 9.76795C20.2371 9.92469 20.0274 10.0129 19.8087 10.0131H18.9838V1.98688H19.8087C20.0274 1.98715 20.2371 2.07531 20.3917 2.23205C20.5464 2.38879 20.6334 2.60129 20.6336 2.82295V9.17705ZM22.3207 6.83607H21.3129V5.16393H22.3207V6.83607Z" fill="white"/>
</svg>
