<svg width="30" height="30" viewBox="0 0 30 30" fill="none" xmlns="http://www.w3.org/2000/svg">
<path d="M28.3334 4.3335C28.3334 3.40008 28.3328 2.93302 28.1511 2.5765C27.9913 2.2629 27.7373 2.00811 27.4237 1.84832C27.0672 1.66667 26.5995 1.66667 25.6661 1.66667H4.33276C3.39934 1.66667 2.9331 1.66667 2.57658 1.84832C2.26298 2.00811 2.00819 2.2629 1.8484 2.5765C1.66675 2.93302 1.66675 3.40008 1.66675 4.3335V5.56226C1.66675 5.96991 1.66675 6.17389 1.7128 6.3657C1.75363 6.53576 1.82114 6.69821 1.91252 6.84733C2.01555 7.01547 2.15993 7.15985 2.448 7.44792L10.8859 15.8858C11.1741 16.1741 11.3175 16.3174 11.4205 16.4856C11.5119 16.6347 11.5803 16.7977 11.6212 16.9678C11.6668 17.1576 11.6668 17.3592 11.6667 17.7586V25.685C11.6667 27.1137 11.6667 27.8285 11.9677 28.2587C12.2304 28.6344 12.6358 28.885 13.0893 28.952C13.6086 29.0287 14.2479 28.7096 15.5258 28.0706L16.8591 27.404C17.3942 27.1364 17.6611 27.0022 17.8566 26.8026C18.0295 26.6261 18.1617 26.4141 18.2423 26.1806C18.3334 25.9165 18.3334 25.6166 18.3334 25.0183V17.771C18.3334 17.3633 18.3334 17.1596 18.3795 16.9678C18.4203 16.7977 18.4878 16.6347 18.5792 16.4856C18.6816 16.3185 18.8245 16.1756 19.1089 15.8911L19.1147 15.8858L27.5526 7.44792C27.8408 7.15966 27.9841 7.01553 28.0872 6.84733C28.1786 6.69821 28.247 6.53577 28.2878 6.3657C28.3334 6.17585 28.3334 5.97406 28.3334 5.57467V4.3335Z" stroke="white" stroke-width="2" stroke-linecap="round" stroke-linejoin="round"/>
</svg>
