<?xml version="1.0" encoding="UTF-8"?>
<!-- Created with Inkscape (http://www.inkscape.org/) -->
<svg width="500" height="500" version="1.1" viewBox="0 0 132.29 132.29" xml:space="preserve" xmlns="http://www.w3.org/2000/svg"><g transform="translate(-21.314 7.4351)" stroke="#000" stroke-linecap="round" stroke-miterlimit="60"><path d="m91.304 81.88c-16.925 0.62747-19.493 0.46666-39.974 1.1153-3.5032 0.11094 0.78075 7.5869 2.804 11.742 3.0925 6.3506-16.66-7.4845-17.174-14.546-0.91953-12.628 7.3317-18.622 22.957-24.184 14.171-5.0447 24.586-1.6653 36.82-7.4631 12.233-5.7977 9.1226-23.159 19.453-27.689 4.4791-1.9644 12.546-2.2101 14.02 2.4535 2.4943 7.893 9.2162 3.4463 9.8139 8.0614 0.91888 7.0949-9.265 7.2618-11.742 10.164-6.1426 7.1989 3.6781 20.047-1.611 27.894-3.0552 4.533-11.468 12.057-19.166 12.251" fill="none" stroke-width="2.8152" style="paint-order:normal"/><ellipse cx="123.96" cy="28.956" rx=".8715" ry="1.1392" stroke-width="2.1796" style="paint-order:normal"/><path d="m87.239 73.732s7.6224 13.21 11.887 15.706c4.9625 2.9052 19.784 1.7455 17.606 1.1467-10.206-2.8062-13.135-19.084-13.135-19.084" fill="none" stroke-width="2.8152" style="paint-order:normal"/><path d="m109.28 82.684s31.853 2.8838 24.322 0.54185c-12.913-4.0157-10.303-9.7419-10.303-9.7419" fill="none" stroke-width="2.8152" style="paint-order:normal"/></g></svg>
