<svg width="9" height="14" viewBox="0 0 9 14" fill="none" xmlns="http://www.w3.org/2000/svg">
<path d="M6.98218 5.26397C8.07121 4.95349 9.32696 2.91791 8.80335 1.70633C8.11779 0.119996 5.6994 0.105616 4.34844 0.592045C2.60506 1.21977 0.766174 3.03956 1.29509 4.99396C1.91164 7.27214 4.77639 8.01583 5.04812 9.99454C5.15125 10.7455 5.24898 11.4231 4.42124 11.6545C4.0047 11.771 3.49766 11.2424 3.22479 10.5853C2.89772 9.79764 2.81121 8.83484 2.32914 8.70587C1.88797 8.58784 0.579257 9.33139 0.366026 9.55053C-0.610706 10.5544 0.741856 11.7298 1.38291 12.2936C2.72177 13.4713 5.32288 13.6082 6.62435 12.3893C7.91078 11.1846 8.49996 9.76611 8.13257 8.04235C7.75462 6.26911 4.95232 5.13261 4.98855 3.56861C5.00054 3.05128 5.25653 1.76741 5.76631 1.78881C6.22622 1.80812 6.65595 3.09101 6.68414 4.02427C6.70674 4.77278 6.41378 5.42602 6.98218 5.26397Z" fill="white"/>
</svg>
