<svg width="31" height="27" viewBox="0 0 31 27" fill="none" xmlns="http://www.w3.org/2000/svg">
<path d="M1 17.667V20.6667C1 22.5335 1 23.4663 1.3512 24.1793C1.66012 24.8065 2.15269 25.3175 2.75899 25.637C3.44758 26 4.34945 26 6.15052 26H30M1 17.667V1M1 17.667L7.20818 12.3151L7.21332 12.3108C8.33638 11.3427 8.899 10.8577 9.50906 10.6606C10.2297 10.4279 11.006 10.4647 11.7034 10.764C12.2946 11.0177 12.8129 11.554 13.8497 12.6265L13.8601 12.6372C14.9129 13.7264 15.4408 14.2724 16.0414 14.5256C16.7522 14.8251 17.5436 14.8509 18.2721 14.6009C18.8897 14.389 19.4538 13.8792 20.5817 12.8583L29.9996 4.33333" stroke="white" stroke-width="2" stroke-linecap="round" stroke-linejoin="round"/>
</svg>
