<?xml version="1.0" encoding="UTF-8" standalone="no"?>
<svg
   width="1600"
   height="900"
   version="1.1"
   id="svg87"
   sodipodi:docname="1.svg"
   inkscape:version="1.4 (86a8ad7, 2024-10-11)"
   xmlns:inkscape="http://www.inkscape.org/namespaces/inkscape"
   xmlns:sodipodi="http://sodipodi.sourceforge.net/DTD/sodipodi-0.dtd"
   xmlns="http://www.w3.org/2000/svg"
   xmlns:svg="http://www.w3.org/2000/svg">
  <sodipodi:namedview
     id="namedview87"
     pagecolor="#ffffff"
     bordercolor="#000000"
     borderopacity="0.25"
     inkscape:showpageshadow="2"
     inkscape:pageopacity="0.0"
     inkscape:pagecheckerboard="0"
     inkscape:deskcolor="#d1d1d1"
     inkscape:zoom="2.135131"
     inkscape:cx="720.33051"
     inkscape:cy="144.95598"
     inkscape:window-width="1920"
     inkscape:window-height="991"
     inkscape:window-x="-9"
     inkscape:window-y="-9"
     inkscape:window-maximized="1"
     inkscape:current-layer="svg87" />
  <defs
     id="defs37">
    <linearGradient
       id="gradient_0"
       gradientUnits="userSpaceOnUse"
       x1="739.12897"
       y1="136.68178"
       x2="743.89288"
       y2="118.3054"
       gradientTransform="matrix(0.69865891,0,0,0.69865891,452.28286,102.75173)">
      <stop
         offset="0"
         stop-color="#110B0A"
         id="stop36" />
      <stop
         offset="1"
         stop-color="#2C1A17"
         id="stop37" />
    </linearGradient>
  </defs>
  <defs
     id="defs67">
    <linearGradient
       id="gradient_1"
       gradientUnits="userSpaceOnUse"
       x1="726.9071"
       y1="328.62439"
       x2="722.15552"
       y2="326.51587"
       gradientTransform="matrix(0.69865891,0,0,0.69865891,452.28286,102.75173)">
      <stop
         offset="0"
         stop-color="#090504"
         id="stop66" />
      <stop
         offset="1"
         stop-color="#21110F"
         id="stop67" />
    </linearGradient>
  </defs>
  <defs
     id="defs70">
    <linearGradient
       id="gradient_2"
       gradientUnits="userSpaceOnUse"
       x1="791.77368"
       y1="158.23056"
       x2="799.45844"
       y2="187.01111"
       gradientTransform="matrix(0.69865891,0,0,0.69865891,452.28286,102.75173)">
      <stop
         offset="0"
         stop-color="#040000"
         id="stop69" />
      <stop
         offset="1"
         stop-color="#221313"
         id="stop70" />
    </linearGradient>
  </defs>
  <defs
     id="defs72">
    <linearGradient
       id="gradient_3"
       gradientUnits="userSpaceOnUse"
       x1="687.62524"
       y1="310.17313"
       x2="680.60168"
       y2="304.02301"
       gradientTransform="matrix(0.69865891,0,0,0.69865891,452.28286,102.75173)">
      <stop
         offset="0"
         stop-color="black"
         id="stop71" />
      <stop
         offset="1"
         stop-color="#271614"
         id="stop72" />
    </linearGradient>
  </defs>
  <path
     style="fill:#ffffff;stroke:#000000;stroke-width:4.34;stroke-linecap:round;stroke-miterlimit:23.6;stroke-dasharray:none;stroke-opacity:1"
     d="m 750.4476,280.17594 c 0,0 52.12356,-39.65636 80.88102,-60.04778 30.06598,-21.31928 83.38289,-66.46192 83.38289,-66.46192 0,0 -51.50187,-99.819911 -147.04269,-35.76714 -100.74905,67.54448 -17.22122,162.27684 -17.22122,162.27684 z"
     id="path92"
     sodipodi:nodetypes="cscsc" />
  <path
     style="fill:#ffffff;stroke:#000000;stroke-width:4.34;stroke-linecap:round;stroke-miterlimit:23.6;stroke-dasharray:none;stroke-opacity:1"
     d="m 763.03234,122.2044 c 0,0 1.64831,43.51332 7.10894,62.78614 5.79939,20.46844 26.67114,56.43766 26.67114,56.43766"
     id="path93"
     sodipodi:nodetypes="csc" />
  <path
     style="fill:#ffffff;stroke:#000000;stroke-width:4.34;stroke-linecap:round;stroke-miterlimit:23.6;stroke-dasharray:none;stroke-opacity:1"
     d="m 782.5718,109.95084 c 0,0 30.15223,19.43181 43.71849,31.07837 16.0021,13.73771 44.04348,45.42357 44.04348,45.42357"
     id="path94"
     sodipodi:nodetypes="csc" />
  <path
     style="fill:#ffff00;stroke:none;stroke-width:2.875;stroke-linecap:round;stroke-miterlimit:23.6;stroke-dasharray:none;stroke-opacity:1"
     d="m 744.48233,269.78992 c -13.35565,-18.91143 -21.83528,-41.81499 -24.4099,-61.28405 -3.87859,-29.32953 9.50497,-56.5468 34.50371,-78.27042 3.14413,-2.73221 6.32001,-5.58426 6.62818,-5.6939 0.30816,-0.10963 0.40713,3.24883 0.64925,6.81927 1.594,23.50585 4.02266,42.78376 6.53378,51.86299 3.03834,10.98546 10.59863,27.50689 21.23222,47.10911 3.31185,6.10516 6.48844,12.76488 6.54008,12.92731 0.13104,0.41212 -45.22383,34.26629 -45.90422,34.26629 -0.30435,0 -3.39333,-4.36687 -5.7731,-7.7366 z"
     id="path95"
     sodipodi:nodetypes="ssssssssss" />
  <path
     style="fill:#ff0000;stroke:none;stroke-width:1.90427;stroke-linecap:round;stroke-miterlimit:23.6;stroke-dasharray:none;stroke-opacity:1"
     d="M 860.62977,173.20297 C 836.27243,146.47604 823.23412,135.71413 797.2446,117.94829 l -12.16372,-8.31483 5.60405,-2.52597 c 14.61881,-6.58927 32.30913,-10.492005 46.04783,-9.094502 10.05237,1.022533 20.46205,4.076382 30.28923,8.929422 12.79808,6.32018 23.8212,14.75246 33.72094,26.61293 5.15306,6.17366 11.61361,18.49386 11.61361,19.64254 0,0.31606 -1.81204,1.52987 -5.5252,4.60267 -19.67996,16.28608 -32.03624,28.15519 -34.82783,27.49053 -1.01771,-0.0838 -5.39903,-5.53215 -11.37374,-12.08811 z"
     id="path96"
     sodipodi:nodetypes="sscsssssscs" />
  <path
     style="fill:#0000ff;stroke:#000000;stroke-width:2.875;stroke-linecap:round;stroke-miterlimit:23.6;stroke-dasharray:none;stroke-opacity:1"
     d="m 845.82665,207.9793 c 0,0 171.85335,-82.45429 144.83976,-92.95691 -23.18828,-9.01537 -84.45358,23.21742 -84.45358,23.21742 l 8.62854,15.05257 z"
     id="path97"
     sodipodi:nodetypes="csccc" />
</svg>
